Dinish-Medium.ufo
<glyph name="dollar" format="2">
  <advance width="483"/>
  <unicode hex="0024"/>
  <outline>
    <contour>
      <point x="32.667" y="220" type="curve"/>
      <point x="118.333" y="220" type="line"/>
      <point x="125.07" y="147.469"/>
      <point x="162.006" y="107.328"/>
      <point x="235.322" y="107.328" type="curve" smooth="yes"/>
      <point x="303.446" y="107.328"/>
      <point x="345.333" y="137.036"/>
      <point x="345.333" y="210.333" type="curve" smooth="yes"/>
      <point x="345.333" y="394.52"/>
      <point x="45" y="241.163"/>
      <point x="45" y="494.667" type="curve" smooth="yes"/>
      <point x="45" y="591.38"/>
      <point x="101.413" y="661.915"/>
      <point x="198.333" y="675.667" type="curve"/>
      <point x="198.333" y="758.667" type="line"/>
      <point x="272.667" y="758.667" type="line"/>
      <point x="272.667" y="676" type="line"/>
      <point x="370.928" y="661.25"/>
      <point x="418.451" y="590.587"/>
      <point x="426" y="496" type="curve"/>
      <point x="338.333" y="496" type="line"/>
      <point x="332.745" y="563.267"/>
      <point x="302.166" y="599.667"/>
      <point x="234" y="599.667" type="curve" smooth="yes"/>
      <point x="171.031" y="599.667"/>
      <point x="134" y="566.808"/>
      <point x="134" y="501.333" type="curve" smooth="yes"/>
      <point x="134" y="324.714"/>
      <point x="435" y="477.066"/>
      <point x="435" y="217" type="curve" smooth="yes"/>
      <point x="435" y="112.678"/>
      <point x="376.101" y="45.325"/>
      <point x="272.667" y="31.667" type="curve"/>
      <point x="272.667" y="-60.333" type="line"/>
      <point x="198.333" y="-60.333" type="line"/>
      <point x="198.333" y="30.333" type="line"/>
      <point x="91.145" y="43.235"/>
      <point x="39.421" y="116.926"/>
    </contour>
  </outline>
</glyph>
<glyph name="parenright" format="2">
  <advance width="302"/>
  <unicode hex="0029"/>
  <outline>
    <contour>
      <point x="158.333" y="336" type="curve" smooth="yes"/>
      <point x="158.333" y="481.582"/>
      <point x="121.138" y="628.344"/>
      <point x="55.333" y="758" type="curve"/>
      <point x="121.333" y="758" type="line"/>
      <point x="203.672" y="630.109"/>
      <point x="246.333" y="488.266"/>
      <point x="246.333" y="336" type="curve" smooth="yes"/>
      <point x="246.333" y="184.34"/>
      <point x="202.854" y="42.122"/>
      <point x="122.333" y="-86" type="curve"/>
      <point x="55.333" y="-86" type="line"/>
      <point x="121.414" y="44.204"/>
      <point x="158.333" y="189.783"/>
    </contour>
  </outline>
</glyph>
<glyph name="three" format="2">
  <advance width="509"/>
  <unicode hex="0033"/>
  <outline>
    <contour>
      <point x="56.673" y="181" type="line"/>
      <point x="148.333" y="181" type="line"/>
      <point x="148.008" y="110.873"/>
      <point x="177.156" y="71.333"/>
      <point x="250.333" y="71.333" type="curve" smooth="yes"/>
      <point x="336.102" y="71.333"/>
      <point x="355" y="134.87"/>
      <point x="355" y="208" type="curve" smooth="yes"/>
      <point x="355" y="285.497"/>
      <point x="308.219" y="324.339"/>
      <point x="234.575" y="324.334" type="curve" smooth="yes"/>
      <point x="207" y="324.333" type="line"/>
      <point x="207" y="407" type="line"/>
      <point x="233.909" y="407.001" type="line" smooth="yes"/>
      <point x="316.671" y="407.011"/>
      <point x="343.333" y="453.063"/>
      <point x="343.333" y="532.333" type="curve" smooth="yes"/>
      <point x="343.333" y="592.555"/>
      <point x="310.325" y="634.667"/>
      <point x="247.667" y="634.667" type="curve" smooth="yes"/>
      <point x="174.919" y="634.667"/>
      <point x="152.372" y="588.627"/>
      <point x="152.667" y="522.667" type="curve"/>
      <point x="64.333" y="522.667" type="line"/>
      <point x="64.333" y="541" type="line" smooth="yes"/>
      <point x="64.333" y="655.538"/>
      <point x="139.776" y="717.333"/>
      <point x="250.667" y="717.333" type="curve" smooth="yes"/>
      <point x="365.02" y="717.333"/>
      <point x="436" y="648.128"/>
      <point x="436" y="533.333" type="curve" smooth="yes"/>
      <point x="436" y="466.407"/>
      <point x="413.991" y="404.861"/>
      <point x="349" y="374.667" type="curve"/>
      <point x="432.075" y="343.149"/>
      <point x="447.667" y="266.478"/>
      <point x="447.667" y="186.667" type="curve" smooth="yes"/>
      <point x="447.667" y="66.819"/>
      <point x="370.082" y="-10.333"/>
      <point x="250.333" y="-10.333" type="curve" smooth="yes"/>
      <point x="131.899" y="-10.333"/>
      <point x="56.673" y="49.708"/>
      <point x="56.673" y="170.981" type="curve" smooth="yes"/>
    </contour>
  </outline>
</glyph>
<glyph name="four" format="2">
  <advance width="518"/>
  <unicode hex="0034"/>
  <outline>
    <contour>
      <point x="475.333" y="129.667" type="line"/>
      <point x="404.667" y="129.667" type="line"/>
      <point x="404.667" y="0" type="line"/>
      <point x="310" y="0" type="line"/>
      <point x="310" y="129.667" type="line"/>
      <point x="43.333" y="129.667" type="line"/>
      <point x="43.333" y="214" type="line"/>
      <point x="252" y="707" type="line"/>
      <point x="346.667" y="707" type="line"/>
      <point x="138" y="214" type="line"/>
      <point x="310" y="214" type="line"/>
      <point x="310" y="397.333" type="line"/>
      <point x="404.667" y="397.333" type="line"/>
      <point x="404.667" y="214" type="line"/>
      <point x="475.333" y="214" type="line"/>
    </contour>
  </outline>
</glyph>
<glyph name="eight" format="2">
  <advance width="528"/>
  <unicode hex="0038"/>
  <outline>
    <contour>
      <point x="62.333" y="212" type="curve" smooth="yes"/>
      <point x="62.333" y="278.068"/>
      <point x="96.019" y="342.522"/>
      <point x="156.333" y="372.333" type="curve"/>
      <point x="90.558" y="406.602"/>
      <point x="76.333" y="465.249"/>
      <point x="76.333" y="534.333" type="curve" smooth="yes"/>
      <point x="76.333" y="642.453"/>
      <point x="157.84" y="717.333"/>
      <point x="264.333" y="717.333" type="curve" smooth="yes"/>
      <point x="389.521" y="717.333"/>
      <point x="453.333" y="633.92"/>
      <point x="453.333" y="514.333" type="curve" smooth="yes"/>
      <point x="453.333" y="455.183"/>
      <point x="425.288" y="400.658"/>
      <point x="372.333" y="372.333" type="curve"/>
      <point x="447.141" y="334.02"/>
      <point x="466.667" y="267.028"/>
      <point x="466.667" y="188" type="curve" smooth="yes"/>
      <point x="466.667" y="68.22"/>
      <point x="381.421" y="-10.333"/>
      <point x="263.333" y="-10.333" type="curve" smooth="yes"/>
      <point x="120.63" y="-10.333"/>
      <point x="62.333" y="84.003"/>
    </contour>
    <contour>
      <point x="169.584" y="516.903" type="line" smooth="yes"/>
      <point x="169.584" y="458.06"/>
      <point x="203.478" y="410.667"/>
      <point x="264.333" y="410.667" type="curve" smooth="yes"/>
      <point x="331.98" y="410.667"/>
      <point x="360.902" y="458.174"/>
      <point x="360.902" y="516.903" type="curve" smooth="yes"/>
      <point x="360.902" y="534.648" type="line" smooth="yes"/>
      <point x="360.902" y="591.118"/>
      <point x="322.04" y="634.667"/>
      <point x="264.333" y="634.667" type="curve" smooth="yes"/>
      <point x="200.412" y="634.667"/>
      <point x="169.584" y="590.869"/>
      <point x="169.584" y="534.648" type="curve" smooth="yes"/>
    </contour>
    <contour>
      <point x="155.285" y="192.204" type="line" smooth="yes"/>
      <point x="155.285" y="125.7"/>
      <point x="196.721" y="71.333"/>
      <point x="264.333" y="71.333" type="curve" smooth="yes"/>
      <point x="342.344" y="71.333"/>
      <point x="373.575" y="125.331"/>
      <point x="373.575" y="192.204" type="curve" smooth="yes"/>
      <point x="373.575" y="213.313" type="line" smooth="yes"/>
      <point x="373.575" y="279.61"/>
      <point x="334.065" y="329.667"/>
      <point x="264.333" y="329.667" type="curve" smooth="yes"/>
      <point x="189.902" y="329.667"/>
      <point x="155.285" y="279.201"/>
      <point x="155.285" y="213.313" type="curve" smooth="yes"/>
    </contour>
  </outline>
</glyph>
<glyph name="less" format="2">
  <advance width="530"/>
  <unicode hex="003C"/>
  <outline>
    <contour>
      <point x="55" y="244.667" type="line"/>
      <point x="55" y="320" type="line"/>
      <point x="474.667" y="488.333" type="line"/>
      <point x="474.667" y="401" type="line"/>
      <point x="171.667" y="282.333" type="line"/>
      <point x="474.667" y="163.667" type="line"/>
      <point x="474.667" y="75.333" type="line"/>
    </contour>
  </outline>
</glyph>
<glyph name="D" format="2">
  <advance width="628"/>
  <unicode hex="0044"/>
  <anchor x="274.667" y="707" name="top"/>
  <outline>
    <contour>
      <point x="74.667" y="707" type="line"/>
      <point x="319" y="707" type="line" smooth="yes"/>
      <point x="494.518" y="707"/>
      <point x="566.333" y="597.529"/>
      <point x="566.333" y="432.667" type="curve" smooth="yes"/>
      <point x="566.333" y="274" type="line" smooth="yes"/>
      <point x="566.333" y="108.428"/>
      <point x="493.243" y="0"/>
      <point x="317.667" y="0" type="curve" smooth="yes"/>
      <point x="74.667" y="0" type="line"/>
    </contour>
    <contour>
      <point x="319.333" y="84.333" type="line" smooth="yes"/>
      <point x="436.657" y="84.333"/>
      <point x="471.667" y="167.852"/>
      <point x="471.667" y="271.667" type="curve" smooth="yes"/>
      <point x="471.667" y="428.333" type="line" smooth="yes"/>
      <point x="471.667" y="532.545"/>
      <point x="439.552" y="622.667"/>
      <point x="319.333" y="622.667" type="curve" smooth="yes"/>
      <point x="170.333" y="622.667" type="line"/>
      <point x="170.333" y="84.333" type="line"/>
    </contour>
  </outline>
</glyph>
<glyph name="E" format="2">
  <advance width="555"/>
  <unicode hex="0045"/>
  <anchor x="291.333" y="707" name="top"/>
  <outline>
    <contour>
      <point x="169.667" y="622.667" type="line"/>
      <point x="169.667" y="400.333" type="line"/>
      <point x="461" y="400.333" type="line"/>
      <point x="461" y="316.667" type="line"/>
      <point x="169.667" y="316.667" type="line"/>
      <point x="169.667" y="84.333" type="line"/>
      <point x="510.333" y="84.333" type="line"/>
      <point x="510.333" y="0" type="line"/>
      <point x="74.667" y="0" type="line"/>
      <point x="74.667" y="707" type="line"/>
      <point x="510.333" y="707" type="line"/>
      <point x="510.333" y="622.667" type="line"/>
    </contour>
  </outline>
</glyph>
<glyph name="G" format="2">
  <advance width="618"/>
  <unicode hex="0047"/>
  <anchor x="309.333" y="707" name="top"/>
  <outline>
    <contour>
      <point x="62.333" y="265.667" type="curve" smooth="yes"/>
      <point x="62.333" y="441.667" type="line" smooth="yes"/>
      <point x="62.333" y="607.67"/>
      <point x="137.125" y="716.333"/>
      <point x="312.667" y="716.333" type="curve" smooth="yes"/>
      <point x="451.542" y="716.333"/>
      <point x="558.505" y="638.631"/>
      <point x="557.667" y="492" type="curve"/>
      <point x="463" y="492" type="line"/>
      <point x="463" y="583.975"/>
      <point x="400.129" y="631.667"/>
      <point x="313" y="631.667" type="curve" smooth="yes"/>
      <point x="189.436" y="631.667"/>
      <point x="156.667" y="545.855"/>
      <point x="156.667" y="437.333" type="curve" smooth="yes"/>
      <point x="156.667" y="263.667" type="line" smooth="yes"/>
      <point x="156.667" y="155.823"/>
      <point x="196.48" y="77.333"/>
      <point x="315.333" y="77.333" type="curve" smooth="yes"/>
      <point x="452.687" y="77.333"/>
      <point x="465.356" y="167.388"/>
      <point x="465.356" y="281.116" type="curve"/>
      <point x="465.333" y="290.333" type="line"/>
      <point x="311" y="290.333" type="line"/>
      <point x="311" y="370.667" type="line"/>
      <point x="559" y="370.667" type="line"/>
      <point x="559" y="259.667" type="line" smooth="yes"/>
      <point x="559" y="94.634"/>
      <point x="485.273" y="-8"/>
      <point x="312" y="-8" type="curve" smooth="yes"/>
      <point x="137.219" y="-8"/>
      <point x="62.333" y="100.286"/>
    </contour>
  </outline>
</glyph>
<glyph name="S" format="2">
  <advance width="560"/>
  <unicode hex="0053"/>
  <anchor x="274.667" y="707" name="top"/>
  <outline>
    <contour>
      <point x="31.333" y="205" type="curve"/>
      <point x="123" y="205" type="line"/>
      <point x="130.642" y="114.421"/>
      <point x="190.301" y="75.667"/>
      <point x="276.667" y="75.667" type="curve" smooth="yes"/>
      <point x="355.927" y="75.667"/>
      <point x="423" y="105.036"/>
      <point x="423" y="194.667" type="curve" smooth="yes"/>
      <point x="423" y="405.196"/>
      <point x="45.667" y="228.892"/>
      <point x="45.667" y="513.333" type="curve" smooth="yes"/>
      <point x="45.667" y="648.849"/>
      <point x="150.417" y="716.333"/>
      <point x="276.333" y="716.333" type="curve" smooth="yes"/>
      <point x="406.235" y="716.333"/>
      <point x="492.332" y="646.098"/>
      <point x="505" y="514.667" type="curve"/>
      <point x="412.667" y="514.667" type="line"/>
      <point x="408.943" y="597.105"/>
      <point x="353.164" y="635.333"/>
      <point x="274.667" y="635.333" type="curve" smooth="yes"/>
      <point x="200.679" y="635.333"/>
      <point x="137.667" y="601.883"/>
      <point x="137.667" y="520" type="curve" smooth="yes"/>
      <point x="137.667" y="323.76"/>
      <point x="516.333" y="489.443"/>
      <point x="516.333" y="201.667" type="curve" smooth="yes"/>
      <point x="516.333" y="55.511"/>
      <point x="403.726" y="-6"/>
      <point x="271" y="-6" type="curve" smooth="yes"/>
      <point x="132.718" y="-6"/>
      <point x="41.569" y="62.613"/>
    </contour>
  </outline>
</glyph>
<glyph name="asciicircum" format="2">
  <advance width="530"/>
  <unicode hex="005E"/>
  <outline>
    <contour>
      <point x="227" y="708.667" type="line"/>
      <point x="303.333" y="708.667" type="line"/>
      <point x="479.333" y="287.333" type="line"/>
      <point x="403.333" y="287.333" type="line"/>
      <point x="264.667" y="623.667" type="line"/>
      <point x="127.333" y="287.333" type="line"/>
      <point x="51" y="287.333" type="line"/>
    </contour>
  </outline>
</glyph>
<glyph name="underscore" format="2">
  <advance width="482"/>
  <unicode hex="005F"/>
  <outline>
    <contour>
      <point x="0" y="-50.333" type="line"/>
      <point x="482.667" y="-50.333" type="line"/>
      <point x="482.667" y="-112" type="line"/>
      <point x="0" y="-112" type="line"/>
    </contour>
  </outline>
</glyph>
<glyph name="a" format="2">
  <advance width="510"/>
  <unicode hex="0061"/>
  <anchor x="255.333" y="523.333" name="top"/>
  <outline>
    <contour>
      <point x="440.667" y="352" type="curve" smooth="yes"/>
      <point x="440.667" y="0" type="line"/>
      <point x="354.333" y="0" type="line"/>
      <point x="354.333" y="52" type="line"/>
      <point x="320.576" y="11.179"/>
      <point x="268.046" y="-6"/>
      <point x="216.333" y="-6" type="curve" smooth="yes"/>
      <point x="117.03" y="-6"/>
      <point x="44.333" y="45.775"/>
      <point x="44.333" y="150.667" type="curve" smooth="yes"/>
      <point x="44.333" y="280.323"/>
      <point x="156.033" y="303.443"/>
      <point x="261.997" y="303.443" type="curve" smooth="yes"/>
      <point x="292.012" y="303.443"/>
      <point x="321.998" y="301.978"/>
      <point x="352" y="301.333" type="curve"/>
      <point x="352" y="354.667" type="line" smooth="yes"/>
      <point x="352" y="422.266"/>
      <point x="312.508" y="459"/>
      <point x="245.667" y="459" type="curve" smooth="yes"/>
      <point x="194.138" y="459"/>
      <point x="143.667" y="432.963"/>
      <point x="143.667" y="374.333" type="curve"/>
      <point x="59" y="374.333" type="line"/>
      <point x="59" y="379" type="line" smooth="yes"/>
      <point x="59" y="484.326"/>
      <point x="151.593" y="530.333"/>
      <point x="245.333" y="530.333" type="curve" smooth="yes"/>
      <point x="359.901" y="530.333"/>
      <point x="440.667" y="472.89"/>
    </contour>
    <contour>
      <point x="352" y="180.333" type="curve" smooth="yes"/>
      <point x="352" y="238.333" type="line"/>
      <point x="234.667" y="238.333" type="line" smooth="yes"/>
      <point x="178.19" y="238.333"/>
      <point x="132" y="214.979"/>
      <point x="132" y="152.333" type="curve" smooth="yes"/>
      <point x="132" y="89.435"/>
      <point x="175.878" y="65.333"/>
      <point x="233.333" y="65.333" type="curve" smooth="yes"/>
      <point x="310.137" y="65.333"/>
      <point x="352" y="102.044"/>
    </contour>
  </outline>
</glyph>
<glyph name="e" format="2">
  <advance width="520"/>
  <unicode hex="0065"/>
  <anchor x="260.333" y="523.333" name="top"/>
  <outline>
    <contour>
      <point x="144" y="240" type="line"/>
      <point x="144" y="214.667" type="line" smooth="yes"/>
      <point x="144" y="131.448"/>
      <point x="177.329" y="71.667"/>
      <point x="268" y="71.667" type="curve" smooth="yes"/>
      <point x="323.683" y="71.667"/>
      <point x="371.894" y="100.098"/>
      <point x="374.667" y="162.333" type="curve"/>
      <point x="460.333" y="162.333" type="line"/>
      <point x="460.333" y="157.333" type="line" smooth="yes"/>
      <point x="460.333" y="44.18"/>
      <point x="364.683" y="-6"/>
      <point x="263" y="-6" type="curve" smooth="yes"/>
      <point x="119.877" y="-6"/>
      <point x="55.333" y="87.506"/>
      <point x="55.333" y="222.667" type="curve" smooth="yes"/>
      <point x="55.333" y="304.333" type="line" smooth="yes"/>
      <point x="55.333" y="437.248"/>
      <point x="119.511" y="530.333"/>
      <point x="260.333" y="530.333" type="curve" smooth="yes"/>
      <point x="400.781" y="530.333"/>
      <point x="464.333" y="436.505"/>
      <point x="464.333" y="304.333" type="curve" smooth="yes"/>
      <point x="464.333" y="240" type="line"/>
    </contour>
    <contour>
      <point x="144" y="303.667" type="line"/>
      <point x="375.333" y="303.667" type="line"/>
      <point x="375.333" y="320.406" type="line" smooth="yes"/>
      <point x="375.333" y="398.034"/>
      <point x="344.181" y="452.667"/>
      <point x="260.333" y="452.667" type="curve" smooth="yes"/>
      <point x="169.359" y="452.667"/>
      <point x="143.701" y="388.602"/>
      <point x="143.975" y="308.144" type="curve"/>
    </contour>
  </outline>
</glyph>
<glyph name="f" format="2">
  <advance width="323"/>
  <unicode hex="0066"/>
  <anchor x="138" y="707" name="top"/>
  <outline>
    <contour>
      <point x="183.667" y="523.333" type="curve"/>
      <point x="288" y="523.333" type="line"/>
      <point x="288" y="457" type="line"/>
      <point x="183.667" y="457" type="line"/>
      <point x="183.667" y="0" type="line"/>
      <point x="95" y="0" type="line"/>
      <point x="95" y="457" type="line"/>
      <point x="32.333" y="457" type="line"/>
      <point x="32.333" y="523.333" type="line"/>
      <point x="95" y="523.333" type="line"/>
      <point x="95" y="573.333" type="line" smooth="yes"/>
      <point x="95" y="656.117"/>
      <point x="144.445" y="707"/>
      <point x="227.667" y="707" type="curve" smooth="yes"/>
      <point x="288" y="707" type="line"/>
      <point x="288" y="641" type="line"/>
      <point x="192.385" y="641"/>
      <point x="183.667" y="622.03"/>
    </contour>
  </outline>
</glyph>
<glyph name="j" format="2">
  <advance width="232"/>
  <unicode hex="006A"/>
  <outline>
    <contour>
      <point x="69" y="707" type="line"/>
      <point x="160.667" y="707" type="line"/>
      <point x="160.667" y="611" type="line"/>
      <point x="69" y="611" type="line"/>
    </contour>
    <contour>
      <point x="-32" y="-78" type="line"/>
      <point x="30.987" y="-78"/>
      <point x="71.333" y="-83.831"/>
      <point x="71.333" y="-6.667" type="curve" smooth="yes"/>
      <point x="71.333" y="523.333" type="line"/>
      <point x="159.333" y="523.333" type="line"/>
      <point x="159.333" y="-12" type="line" smooth="yes"/>
      <point x="159.333" y="-102.922"/>
      <point x="114.382" y="-157.333"/>
      <point x="20.667" y="-157.333" type="curve" smooth="yes"/>
      <point x="-32" y="-157.333" type="line"/>
    </contour>
  </outline>
</glyph>
<glyph name="k" format="2">
  <advance width="514"/>
  <unicode hex="006B"/>
  <anchor x="224.333" y="581.667" name="top"/>
  <outline>
    <contour>
      <point x="242.333" y="253.667" type="line"/>
      <point x="158" y="156" type="line"/>
      <point x="158" y="0" type="line"/>
      <point x="69.667" y="0" type="line"/>
      <point x="69.667" y="707" type="line"/>
      <point x="158" y="707" type="line"/>
      <point x="158" y="265.667" type="line"/>
      <point x="366.667" y="523.333" type="line"/>
      <point x="473" y="523.333" type="line"/>
      <point x="301" y="322.333" type="line"/>
      <point x="496.667" y="0" type="line"/>
      <point x="389" y="0" type="line"/>
    </contour>
  </outline>
</glyph>
<glyph name="r" format="2">
  <advance width="352"/>
  <unicode hex="0072"/>
  <anchor x="193" y="523.333" name="top"/>
  <outline>
    <contour>
      <point x="69.667" y="523.333" type="line"/>
      <point x="156.333" y="523.333" type="line"/>
      <point x="156.333" y="459" type="line"/>
      <point x="182.778" y="507.362"/>
      <point x="235.888" y="532"/>
      <point x="289.667" y="532" type="curve" smooth="yes"/>
      <point x="302.731" y="532"/>
      <point x="315.815" y="531.059"/>
      <point x="328.667" y="528.667" type="curve"/>
      <point x="328.667" y="443" type="line"/>
      <point x="310.492" y="448.826"/>
      <point x="291.434" y="452"/>
      <point x="272.333" y="452" type="curve" smooth="yes"/>
      <point x="199.284" y="452"/>
      <point x="158" y="394.72"/>
      <point x="158" y="325.667" type="curve" smooth="yes"/>
      <point x="158" y="0" type="line"/>
      <point x="69.667" y="0" type="line"/>
    </contour>
  </outline>
</glyph>
<glyph name="s" format="2">
  <advance width="477"/>
  <unicode hex="0073"/>
  <anchor x="239.333" y="523.333" name="top"/>
  <outline>
    <contour>
      <point x="44.333" y="154" type="curve"/>
      <point x="129.333" y="154" type="line"/>
      <point x="129.333" y="90.696"/>
      <point x="186.418" y="67.333"/>
      <point x="240.333" y="67.333" type="curve" smooth="yes"/>
      <point x="291.527" y="67.333"/>
      <point x="353.333" y="86.263"/>
      <point x="353.333" y="148" type="curve" smooth="yes"/>
      <point x="353.333" y="284.243"/>
      <point x="52" y="167.988"/>
      <point x="52" y="376.667" type="curve" smooth="yes"/>
      <point x="52" y="482.281"/>
      <point x="144.421" y="530.333"/>
      <point x="239" y="530.333" type="curve" smooth="yes"/>
      <point x="334.101" y="530.333"/>
      <point x="431.96" y="486.958"/>
      <point x="431" y="378" type="curve"/>
      <point x="346.667" y="378" type="line"/>
      <point x="346.667" y="438.426"/>
      <point x="290.895" y="459"/>
      <point x="240.333" y="459" type="curve" smooth="yes"/>
      <point x="191.301" y="459"/>
      <point x="137" y="439.459"/>
      <point x="137" y="381.667" type="curve" smooth="yes"/>
      <point x="137" y="249.34"/>
      <point x="438.333" y="363.985"/>
      <point x="438.333" y="153.667" type="curve" smooth="yes"/>
      <point x="438.333" y="37.864"/>
      <point x="338.538" y="-6"/>
      <point x="237" y="-6" type="curve" smooth="yes"/>
      <point x="136.338" y="-6"/>
      <point x="43.327" y="41.379"/>
    </contour>
  </outline>
</glyph>
<glyph name="x" format="2">
  <advance width="444"/>
  <unicode hex="0078"/>
  <anchor x="223.333" y="523.333" name="top"/>
  <outline>
    <contour>
      <point x="337.667" y="0" type="line"/>
      <point x="220" y="194.667" type="line"/>
      <point x="106.667" y="0" type="line"/>
      <point x="12.333" y="0" type="line"/>
      <point x="175" y="269.333" type="line"/>
      <point x="22.667" y="523.333" type="line"/>
      <point x="116.667" y="523.333" type="line"/>
      <point x="224.667" y="345" type="line"/>
      <point x="327.333" y="523.333" type="line"/>
      <point x="422" y="523.333" type="line"/>
      <point x="267" y="273.667" type="line"/>
      <point x="431.667" y="0" type="line"/>
    </contour>
  </outline>
</glyph>
<glyph name="braceleft" format="2">
  <advance width="355"/>
  <unicode hex="007B"/>
  <outline>
    <contour>
      <point x="55.333" y="298" type="curve"/>
      <point x="55.333" y="378.667" type="line"/>
      <point x="112.476" y="380.085"/>
      <point x="129.333" y="406.998"/>
      <point x="129.333" y="461.333" type="curve" smooth="yes"/>
      <point x="129.333" y="641" type="line" smooth="yes"/>
      <point x="129.333" y="715.753"/>
      <point x="165.017" y="758"/>
      <point x="241.667" y="758" type="curve" smooth="yes"/>
      <point x="299.667" y="758" type="line"/>
      <point x="299.667" y="681.667" type="line"/>
      <point x="254.898" y="681.667"/>
      <point x="218" y="688.99"/>
      <point x="218" y="632" type="curve" smooth="yes"/>
      <point x="218" y="462.667" type="line" smooth="yes"/>
      <point x="218" y="406.469"/>
      <point x="212.165" y="358.466"/>
      <point x="152.333" y="338" type="curve"/>
      <point x="211.732" y="316.889"/>
      <point x="218" y="270.425"/>
      <point x="218" y="214" type="curve" smooth="yes"/>
      <point x="218" y="39.667" type="line" smooth="yes"/>
      <point x="218" y="-17.216"/>
      <point x="254.86" y="-10.667"/>
      <point x="299.667" y="-10.667" type="curve"/>
      <point x="299.667" y="-86" type="line"/>
      <point x="241.667" y="-86" type="line" smooth="yes"/>
      <point x="164.725" y="-86"/>
      <point x="129.333" y="-43.587"/>
      <point x="129.333" y="31.333" type="curve" smooth="yes"/>
      <point x="129.333" y="215.333" type="line" smooth="yes"/>
      <point x="129.333" y="269.669"/>
      <point x="112.476" y="296.582"/>
    </contour>
  </outline>
</glyph>
<glyph name="sterling" format="2">
  <advance width="456"/>
  <unicode hex="00A3"/>
  <outline>
    <contour>
      <point x="51.333" y="0" type="line"/>
      <point x="51.333" y="79" type="line"/>
      <point x="92.044" y="102.672"/>
      <point x="97" y="137.765"/>
      <point x="97" y="181.333" type="curve" smooth="yes"/>
      <point x="97" y="292.333" type="line"/>
      <point x="31.333" y="292.333" type="line"/>
      <point x="31.333" y="376.333" type="line"/>
      <point x="97" y="376.333" type="line"/>
      <point x="97" y="535.333" type="line" smooth="yes"/>
      <point x="97" y="640.811"/>
      <point x="151.268" y="717"/>
      <point x="262.667" y="717" type="curve" smooth="yes"/>
      <point x="361.604" y="717"/>
      <point x="423.357" y="655.278"/>
      <point x="423.333" y="556.333" type="curve"/>
      <point x="332.333" y="556.333" type="line"/>
      <point x="332.385" y="600.205"/>
      <point x="308.667" y="632.333"/>
      <point x="262.667" y="632.333" type="curve" smooth="yes"/>
      <point x="211.716" y="632.333"/>
      <point x="192.333" y="593.749"/>
      <point x="192.333" y="548" type="curve" smooth="yes"/>
      <point x="192.333" y="376.333" type="line"/>
      <point x="331.333" y="376.333" type="line"/>
      <point x="331.333" y="292.333" type="line"/>
      <point x="192.442" y="292.333" type="line"/>
      <point x="192.442" y="196.646" type="line" smooth="yes"/>
      <point x="192.442" y="155.895"/>
      <point x="187.185" y="115.966"/>
      <point x="159" y="85.333" type="curve"/>
      <point x="426" y="85.333" type="line"/>
      <point x="426" y="0" type="line"/>
    </contour>
  </outline>
</glyph>
<glyph name="currency" format="2">
  <advance width="621"/>
  <unicode hex="00A4"/>
  <outline>
    <contour>
      <point x="424" y="161" type="line"/>
      <point x="390.281" y="137.742"/>
      <point x="350.812" y="127"/>
      <point x="310" y="127" type="curve" smooth="yes"/>
      <point x="269.259" y="127"/>
      <point x="229.981" y="137.783"/>
      <point x="196.333" y="161" type="curve"/>
      <point x="126" y="91" type="line"/>
      <point x="69.667" y="148.667" type="line"/>
      <point x="139" y="218.333" type="line"/>
      <point x="116.884" y="251.897"/>
      <point x="106.667" y="291.312"/>
      <point x="106.667" y="331.333" type="curve" smooth="yes"/>
      <point x="106.667" y="371.32"/>
      <point x="117.219" y="410.945"/>
      <point x="140" y="444" type="curve"/>
      <point x="69.667" y="515" type="line"/>
      <point x="126" y="571.667" type="line"/>
      <point x="197.333" y="502" type="line"/>
      <point x="230.656" y="524.267"/>
      <point x="270.005" y="535"/>
      <point x="310" y="535" type="curve" smooth="yes"/>
      <point x="350.072" y="535"/>
      <point x="389.601" y="524.307"/>
      <point x="423" y="502" type="curve"/>
      <point x="494.333" y="571.667" type="line"/>
      <point x="551" y="515" type="line"/>
      <point x="480.333" y="444.667" type="line"/>
      <point x="502.559" y="411.04"/>
      <point x="514.333" y="371.682"/>
      <point x="514.333" y="331.333" type="curve" smooth="yes"/>
      <point x="514.333" y="290.811"/>
      <point x="503.669" y="251.526"/>
      <point x="480.667" y="218" type="curve"/>
      <point x="552" y="147.667" type="line"/>
      <point x="495" y="90" type="line"/>
    </contour>
    <contour>
      <point x="436.667" y="331.333" type="curve" smooth="yes"/>
      <point x="436.667" y="404.214"/>
      <point x="383.388" y="459.667"/>
      <point x="310" y="459.667" type="curve" smooth="yes"/>
      <point x="236.742" y="459.667"/>
      <point x="184.667" y="403.482"/>
      <point x="184.667" y="331.333" type="curve" smooth="yes"/>
      <point x="184.667" y="258.845"/>
      <point x="236.191" y="202.333"/>
      <point x="310" y="202.333" type="curve" smooth="yes"/>
      <point x="383.932" y="202.333"/>
      <point x="436.667" y="258.121"/>
    </contour>
  </outline>
</glyph>
<glyph name="section" format="2">
  <advance width="523"/>
  <unicode hex="00A7"/>
  <outline>
    <contour>
      <point x="88.333" y="-1.333" type="curve"/>
      <point x="174" y="-1.333" type="line"/>
      <point x="173.933" y="-59.427"/>
      <point x="196.587" y="-93.333"/>
      <point x="258" y="-93.333" type="curve" smooth="yes"/>
      <point x="309.474" y="-93.333"/>
      <point x="341" y="-65.61"/>
      <point x="341" y="-13" type="curve" smooth="yes"/>
      <point x="341" y="146.386"/>
      <point x="74.667" y="26.993"/>
      <point x="74.667" y="282" type="curve" smooth="yes"/>
      <point x="74.667" y="353.519"/>
      <point x="104.415" y="414.794"/>
      <point x="172.667" y="443" type="curve"/>
      <point x="118.201" y="470.958"/>
      <point x="97" y="516.544"/>
      <point x="97" y="576.333" type="curve" smooth="yes"/>
      <point x="97" y="674.114"/>
      <point x="170.295" y="731.667"/>
      <point x="264" y="731.667" type="curve" smooth="yes"/>
      <point x="370.355" y="731.667"/>
      <point x="430.027" y="672.698"/>
      <point x="430" y="566" type="curve"/>
      <point x="344.667" y="566" type="line"/>
      <point x="344.733" y="619.227"/>
      <point x="321.501" y="653.667"/>
      <point x="265.333" y="653.667" type="curve" smooth="yes"/>
      <point x="217.01" y="653.667"/>
      <point x="187" y="624.479"/>
      <point x="187" y="576" type="curve" smooth="yes"/>
      <point x="187" y="417.854"/>
      <point x="448.333" y="536.493"/>
      <point x="448.333" y="282.667" type="curve" smooth="yes"/>
      <point x="448.333" y="215.673"/>
      <point x="418.759" y="146.897"/>
      <point x="352.333" y="122.333" type="curve"/>
      <point x="410.763" y="93.82"/>
      <point x="430.667" y="47.564"/>
      <point x="430.667" y="-15.333" type="curve" smooth="yes"/>
      <point x="430.667" y="-115.375"/>
      <point x="354.393" y="-172"/>
      <point x="259.333" y="-172" type="curve" smooth="yes"/>
      <point x="147.877" y="-172"/>
      <point x="88.303" y="-113.143"/>
    </contour>
    <contour>
      <point x="358.667" y="282.333" type="curve" smooth="yes"/>
      <point x="358.667" y="344.503"/>
      <point x="328.639" y="391.667"/>
      <point x="262" y="391.667" type="curve" smooth="yes"/>
      <point x="194.74" y="391.667"/>
      <point x="164.667" y="345.117"/>
      <point x="164.667" y="282.333" type="curve" smooth="yes"/>
      <point x="164.667" y="219.156"/>
      <point x="194.395" y="173"/>
      <point x="262" y="173" type="curve" smooth="yes"/>
      <point x="327.745" y="173"/>
      <point x="358.667" y="220.968"/>
    </contour>
  </outline>
</glyph>
<glyph name="copyright" format="2">
  <advance width="846"/>
  <unicode hex="00A9"/>
  <outline>
    <contour>
      <point x="68" y="348.667" type="curve" smooth="yes"/>
      <point x="68" y="558.432"/>
      <point x="206.722" y="708"/>
      <point x="419.333" y="708" type="curve" smooth="yes"/>
      <point x="632.422" y="708"/>
      <point x="771.667" y="559.203"/>
      <point x="771.667" y="348.667" type="curve" smooth="yes"/>
      <point x="771.667" y="137.162"/>
      <point x="632.919" y="-9.667"/>
      <point x="419.333" y="-9.667" type="curve" smooth="yes"/>
      <point x="206.556" y="-9.667"/>
      <point x="68" y="138.272"/>
    </contour>
    <contour>
      <point x="705.333" y="348.667" type="curve" smooth="yes"/>
      <point x="705.333" y="523.981"/>
      <point x="598.449" y="645.333"/>
      <point x="419.333" y="645.333" type="curve" smooth="yes"/>
      <point x="239.804" y="645.333"/>
      <point x="134.333" y="523.981"/>
      <point x="134.333" y="348.667" type="curve" smooth="yes"/>
      <point x="134.333" y="173.251"/>
      <point x="239.902" y="52.667"/>
      <point x="419.333" y="52.667" type="curve" smooth="yes"/>
      <point x="598.338" y="52.667"/>
      <point x="705.333" y="173.262"/>
    </contour>
    <contour>
      <point x="269.333" y="312" type="curve" smooth="yes"/>
      <point x="269.333" y="388.667" type="line" smooth="yes"/>
      <point x="269.333" y="489.643"/>
      <point x="318.334" y="549.667"/>
      <point x="422.667" y="549.667" type="curve" smooth="yes"/>
      <point x="512.303" y="549.667"/>
      <point x="569" y="503.679"/>
      <point x="569" y="411.667" type="curve"/>
      <point x="504.333" y="411.667" type="line"/>
      <point x="504.333" y="461.946"/>
      <point x="474.92" y="489"/>
      <point x="425" y="489" type="curve" smooth="yes"/>
      <point x="357.038" y="489"/>
      <point x="337" y="448.007"/>
      <point x="337" y="386.333" type="curve" smooth="yes"/>
      <point x="337" y="314.333" type="line" smooth="yes"/>
      <point x="337" y="252.318"/>
      <point x="356.203" y="211.667"/>
      <point x="425" y="211.667" type="curve" smooth="yes"/>
      <point x="475.777" y="211.667"/>
      <point x="504.333" y="237.927"/>
      <point x="504.333" y="289" type="curve"/>
      <point x="569" y="289" type="line"/>
      <point x="569" y="284" type="line" smooth="yes"/>
      <point x="569" y="195.562"/>
      <point x="505.834" y="152"/>
      <point x="422.667" y="152" type="curve" smooth="yes"/>
      <point x="317.738" y="152"/>
      <point x="269.333" y="210.109"/>
    </contour>
  </outline>
</glyph>
<glyph name="macron" format="2">
  <advance width="512"/>
  <unicode hex="00AF"/>
  <outline>
    <contour>
      <point x="119.333" y="684.333" type="line"/>
      <point x="392.667" y="684.333" type="line"/>
      <point x="392.667" y="604" type="line"/>
      <point x="119.333" y="604" type="line"/>
    </contour>
  </outline>
</glyph>
<glyph name="ordmasculine" format="2">
  <advance width="346"/>
  <unicode hex="00BA"/>
  <outline>
    <contour>
      <point x="42.667" y="570.667" type="curve" smooth="yes"/>
      <point x="42.667" y="631.667" type="line" smooth="yes"/>
      <point x="42.667" y="716.921"/>
      <point x="86.308" y="766"/>
      <point x="173.333" y="766" type="curve" smooth="yes"/>
      <point x="260.571" y="766"/>
      <point x="303.667" y="717.018"/>
      <point x="303.667" y="631.667" type="curve" smooth="yes"/>
      <point x="303.667" y="570.667" type="line" smooth="yes"/>
      <point x="303.667" y="485.558"/>
      <point x="260.441" y="436"/>
      <point x="173.333" y="436" type="curve" smooth="yes"/>
      <point x="86.442" y="436"/>
      <point x="42.667" y="485.658"/>
    </contour>
    <contour>
      <point x="229" y="570.667" type="curve" smooth="yes"/>
      <point x="229" y="631.333" type="line" smooth="yes"/>
      <point x="229" y="669.747"/>
      <point x="215.659" y="699.333"/>
      <point x="173" y="699.333" type="curve" smooth="yes"/>
      <point x="130.341" y="699.333"/>
      <point x="117" y="669.747"/>
      <point x="117" y="631.333" type="curve" smooth="yes"/>
      <point x="117" y="570.667" type="line" smooth="yes"/>
      <point x="117" y="532.081"/>
      <point x="130.395" y="503.333"/>
      <point x="173" y="503.333" type="curve" smooth="yes"/>
      <point x="215.605" y="503.333"/>
      <point x="229" y="532.081"/>
    </contour>
  </outline>
</glyph>
<glyph name="threequarters" format="2">
  <advance width="868"/>
  <unicode hex="00BE"/>
  <outline>
    <contour>
      <point x="39.333" y="396.333" type="curve"/>
      <point x="111.667" y="396.333" type="line"/>
      <point x="111.667" y="360.966"/>
      <point x="124.4" y="339"/>
      <point x="163" y="339" type="curve" smooth="yes"/>
      <point x="206.504" y="339"/>
      <point x="213.667" y="371.594"/>
      <point x="213.667" y="407.333" type="curve" smooth="yes"/>
      <point x="213.667" y="460.451"/>
      <point x="179.146" y="466"/>
      <point x="135.667" y="466" type="curve"/>
      <point x="135.667" y="533" type="line"/>
      <point x="185.261" y="533"/>
      <point x="206.667" y="539.547"/>
      <point x="206.667" y="594.667" type="curve" smooth="yes"/>
      <point x="206.667" y="623.894"/>
      <point x="192.678" y="646"/>
      <point x="161.333" y="646" type="curve" smooth="yes"/>
      <point x="122.665" y="646"/>
      <point x="114" y="623.745"/>
      <point x="114" y="589.667" type="curve"/>
      <point x="41.333" y="589.667" type="line"/>
      <point x="41.333" y="600.333" type="line" smooth="yes"/>
      <point x="41.333" y="674.542"/>
      <point x="93.079" y="714"/>
      <point x="164" y="714" type="curve" smooth="yes"/>
      <point x="242.883" y="714"/>
      <point x="285.667" y="670.035"/>
      <point x="285.667" y="592" type="curve" smooth="yes"/>
      <point x="285.667" y="555.543"/>
      <point x="267.199" y="523.101"/>
      <point x="234.667" y="506" type="curve"/>
      <point x="281.925" y="485.874"/>
      <point x="292" y="441.232"/>
      <point x="292" y="394.667" type="curve" smooth="yes"/>
      <point x="292" y="320.742"/>
      <point x="237.096" y="272"/>
      <point x="164.667" y="272" type="curve" smooth="yes"/>
      <point x="81.102" y="272"/>
      <point x="39.333" y="313.673"/>
    </contour>
    <contour>
      <point x="839.333" y="70.667" type="line"/>
      <point x="803.333" y="70.667" type="line"/>
      <point x="803.333" y="0" type="line"/>
      <point x="721.667" y="0" type="line"/>
      <point x="721.667" y="70.667" type="line"/>
      <point x="559" y="70.667" type="line"/>
      <point x="559" y="141.333" type="line"/>
      <point x="678.333" y="427.667" type="line"/>
      <point x="759.333" y="427.667" type="line"/>
      <point x="640.667" y="141.333" type="line"/>
      <point x="721.667" y="141.333" type="line"/>
      <point x="721.667" y="238.667" type="line"/>
      <point x="803.333" y="238.667" type="line"/>
      <point x="803.333" y="141.333" type="line"/>
      <point x="839.333" y="141.333" type="line"/>
    </contour>
    <contour>
      <point x="583.333" y="708.667" type="line"/>
      <point x="660.333" y="708.667" type="line"/>
      <point x="274" y="0" type="line"/>
      <point x="198" y="0" type="line"/>
    </contour>
  </outline>
</glyph>
<glyph name="AE" format="2">
  <advance width="892"/>
  <unicode hex="00C6"/>
  <outline>
    <contour>
      <point x="528" y="622.667" type="line"/>
      <point x="528" y="400.333" type="line"/>
      <point x="797.333" y="400.333" type="line"/>
      <point x="797.333" y="316.667" type="line"/>
      <point x="528" y="316.667" type="line"/>
      <point x="528" y="84.333" type="line"/>
      <point x="848" y="84.333" type="line"/>
      <point x="848" y="0" type="line"/>
      <point x="433" y="0" type="line"/>
      <point x="433" y="164.667" type="line"/>
      <point x="192.667" y="164.667" type="line"/>
      <point x="107" y="0" type="line"/>
      <point x="6" y="0" type="line"/>
      <point x="378" y="707" type="line"/>
      <point x="848" y="707" type="line"/>
      <point x="848" y="622.667" type="line"/>
    </contour>
    <contour>
      <point x="433" y="244.667" type="line"/>
      <point x="433" y="625.667" type="line"/>
      <point x="234" y="244.667" type="line"/>
    </contour>
  </outline>
</glyph>
<glyph name="Eth" format="2">
  <advance width="685"/>
  <unicode hex="00D0"/>
  <outline>
    <contour>
      <point x="617" y="432.667" type="curve" smooth="yes"/>
      <point x="617" y="274" type="line" smooth="yes"/>
      <point x="617" y="108.654"/>
      <point x="543.687" y="0"/>
      <point x="368.333" y="0" type="curve" smooth="yes"/>
      <point x="125.333" y="0" type="line"/>
      <point x="125.333" y="316.333" type="line"/>
      <point x="39" y="316.333" type="line"/>
      <point x="39" y="400.333" type="line"/>
      <point x="125.333" y="400.333" type="line"/>
      <point x="125.333" y="707" type="line"/>
      <point x="369.667" y="707" type="line" smooth="yes"/>
      <point x="545.379" y="707"/>
      <point x="617" y="597.667"/>
    </contour>
    <contour>
      <point x="522.333" y="428.333" type="line" smooth="yes"/>
      <point x="522.333" y="532.654"/>
      <point x="490.35" y="622.667"/>
      <point x="370" y="622.667" type="curve" smooth="yes"/>
      <point x="220.667" y="622.667" type="line"/>
      <point x="220.667" y="400.333" type="line"/>
      <point x="356.333" y="400.333" type="line"/>
      <point x="356.333" y="316.333" type="line"/>
      <point x="220.667" y="316.333" type="line"/>
      <point x="220.667" y="84.333" type="line"/>
      <point x="370" y="84.333" type="line" smooth="yes"/>
      <point x="487.454" y="84.333"/>
      <point x="522.333" y="167.718"/>
      <point x="522.333" y="271.667" type="curve" smooth="yes"/>
    </contour>
  </outline>
</glyph>
<glyph name="ae" format="2">
  <advance width="816"/>
  <unicode hex="00E6"/>
  <outline>
    <contour>
      <point x="44.333" y="150.667" type="curve" smooth="yes"/>
      <point x="44.333" y="253.301"/>
      <point x="109.733" y="302.137"/>
      <point x="227.105" y="302.137" type="curve" smooth="yes"/>
      <point x="352" y="302.137" type="line"/>
      <point x="352" y="354.667" type="line" smooth="yes"/>
      <point x="352" y="424.16"/>
      <point x="314.529" y="459"/>
      <point x="245.667" y="459" type="curve" smooth="yes"/>
      <point x="190.465" y="459"/>
      <point x="143.667" y="435.691"/>
      <point x="143.667" y="374.333" type="curve"/>
      <point x="59" y="374.333" type="line"/>
      <point x="59" y="379" type="line" smooth="yes"/>
      <point x="59" y="485.819"/>
      <point x="150.567" y="530.333"/>
      <point x="245.333" y="530.333" type="curve" smooth="yes"/>
      <point x="304.819" y="530.333"/>
      <point x="365.333" y="516.175"/>
      <point x="403.667" y="467.667" type="curve"/>
      <point x="442.304" y="513.717"/>
      <point x="498.313" y="530.333"/>
      <point x="557" y="530.333" type="curve" smooth="yes"/>
      <point x="698.503" y="530.333"/>
      <point x="760.667" y="436.935"/>
      <point x="760.667" y="304.333" type="curve" smooth="yes"/>
      <point x="760.667" y="240" type="line"/>
      <point x="440.667" y="240" type="line"/>
      <point x="440.667" y="214.667" type="line" smooth="yes"/>
      <point x="440.667" y="129.681"/>
      <point x="470.918" y="71.667"/>
      <point x="564.333" y="71.667" type="curve" smooth="yes"/>
      <point x="621.202" y="71.667"/>
      <point x="671" y="99.837"/>
      <point x="671" y="162.333" type="curve"/>
      <point x="756.667" y="162.333" type="line"/>
      <point x="756.667" y="157.333" type="line" smooth="yes"/>
      <point x="756.667" y="46.089"/>
      <point x="667.684" y="-6"/>
      <point x="566.333" y="-6" type="curve" smooth="yes"/>
      <point x="499.949" y="-6"/>
      <point x="437.254" y="15.216"/>
      <point x="397.667" y="70.667" type="curve"/>
      <point x="356.801" y="14.996"/>
      <point x="293.681" y="-6"/>
      <point x="226.333" y="-6" type="curve" smooth="yes"/>
      <point x="125.993" y="-6"/>
      <point x="44.333" y="41.226"/>
    </contour>
    <contour>
      <point x="440.667" y="303.667" type="curve"/>
      <point x="671.333" y="303.667" type="line"/>
      <point x="671.333" y="320.333" type="line" smooth="yes"/>
      <point x="671.333" y="399.537"/>
      <point x="643.413" y="452"/>
      <point x="557" y="452" type="curve" smooth="yes"/>
      <point x="460.843" y="452"/>
      <point x="440.667" y="386.151"/>
    </contour>
    <contour>
      <point x="132" y="152.333" type="curve" smooth="yes"/>
      <point x="132" y="87.736"/>
      <point x="173.847" y="65.333"/>
      <point x="233.333" y="65.333" type="curve" smooth="yes"/>
      <point x="312.869" y="65.333"/>
      <point x="352" y="106.739"/>
      <point x="352" y="185.667" type="curve" smooth="yes"/>
      <point x="352" y="238.333" type="line"/>
      <point x="234.667" y="238.333" type="line" smooth="yes"/>
      <point x="176.159" y="238.333"/>
      <point x="132" y="216.727"/>
    </contour>
  </outline>
</glyph>
<glyph name="ccedilla" format="2">
  <advance width="516"/>
  <unicode hex="00E7"/>
  <outline>
    <contour>
      <point x="374.667" y="345" type="line"/>
      <point x="374.667" y="414.612"/>
      <point x="333.109" y="450.667"/>
      <point x="264.667" y="450.667" type="curve" smooth="yes"/>
      <point x="173.421" y="450.667"/>
      <point x="144" y="393.978"/>
      <point x="144" y="310.667" type="curve" smooth="yes"/>
      <point x="144" y="213.333" type="line" smooth="yes"/>
      <point x="144" y="130.116"/>
      <point x="171.939" y="72.667"/>
      <point x="264" y="72.667" type="curve" smooth="yes"/>
      <point x="332.361" y="72.667"/>
      <point x="374.667" y="107.225"/>
      <point x="374.667" y="177.333" type="curve"/>
      <point x="460.333" y="177.333" type="line"/>
      <point x="460.333" y="172.333" type="line" smooth="yes"/>
      <point x="460.333" y="81.976"/>
      <point x="408.095" y="19.073"/>
      <point x="320.333" y="-0.333" type="curve"/>
      <point x="270.333" y="-156" type="line"/>
      <point x="183.333" y="-156" type="line"/>
      <point x="242.333" y="-5.333" type="line"/>
      <point x="111.853" y="2.143"/>
      <point x="55.333" y="85.883"/>
      <point x="55.333" y="210.333" type="curve" smooth="yes"/>
      <point x="55.333" y="314" type="line" smooth="yes"/>
      <point x="55.333" y="449.362"/>
      <point x="122.27" y="530.333"/>
      <point x="262" y="530.333" type="curve" smooth="yes"/>
      <point x="380.684" y="530.333"/>
      <point x="460.333" y="468.028"/>
      <point x="460.333" y="345" type="curve"/>
    </contour>
  </outline>
</glyph>
<glyph name="oslash" format="2">
  <advance width="519"/>
  <unicode hex="00F8"/>
  <outline>
    <contour>
      <point x="415" y="471" type="line"/>
      <point x="452.845" y="428.407"/>
      <point x="463.333" y="369.256"/>
      <point x="463.333" y="314" type="curve" smooth="yes"/>
      <point x="463.333" y="210.333" type="line" smooth="yes"/>
      <point x="463.333" y="76.993"/>
      <point x="399.905" y="-6"/>
      <point x="260.667" y="-6" type="curve" smooth="yes"/>
      <point x="218.851" y="-6"/>
      <point x="175.942" y="1.653"/>
      <point x="139.667" y="23.333" type="curve"/>
      <point x="106.667" y="-30.667" type="line"/>
      <point x="55.333" y="-30.667" type="line"/>
      <point x="106" y="51.333" type="line"/>
      <point x="66.835" y="94.004"/>
      <point x="55.333" y="154.152"/>
      <point x="55.333" y="210.333" type="curve" smooth="yes"/>
      <point x="55.333" y="314" type="line" smooth="yes"/>
      <point x="55.333" y="448.325"/>
      <point x="121.941" y="530.333"/>
      <point x="260.667" y="530.333" type="curve" smooth="yes"/>
      <point x="302.493" y="530.333"/>
      <point x="345.324" y="522.436"/>
      <point x="381" y="499.667" type="curve"/>
      <point x="412.333" y="550.333" type="line"/>
      <point x="463.333" y="550.333" type="line"/>
    </contour>
    <contour>
      <point x="157" y="135.333" type="curve"/>
      <point x="336" y="426.667" type="line"/>
      <point x="315.532" y="444.854"/>
      <point x="287.343" y="450.667"/>
      <point x="260.667" y="450.667" type="curve" smooth="yes"/>
      <point x="170.848" y="450.667"/>
      <point x="144" y="391.171"/>
      <point x="144" y="310.667" type="curve" smooth="yes"/>
      <point x="144" y="213.333" type="line" smooth="yes"/>
      <point x="144" y="186.914"/>
      <point x="146.985" y="159.86"/>
    </contour>
    <contour>
      <point x="362.333" y="386" type="curve"/>
      <point x="184.333" y="96" type="line"/>
      <point x="205.396" y="78.059"/>
      <point x="233.702" y="72.667"/>
      <point x="260.667" y="72.667" type="curve" smooth="yes"/>
      <point x="349.72" y="72.667"/>
      <point x="374.667" y="134.989"/>
      <point x="374.667" y="213.333" type="curve" smooth="yes"/>
      <point x="374.667" y="310.667" type="line" smooth="yes"/>
      <point x="374.667" y="336.095"/>
      <point x="372.368" y="362.468"/>
    </contour>
  </outline>
</glyph>
<glyph name="eogonek" format="2">
  <advance width="520"/>
  <unicode hex="0119"/>
  <outline>
    <component base="e"/>
    <contour>
      <point x="229" y="-92" type="curve"/>
      <point x="333.667" y="25.667" type="line"/>
      <point x="423.626" y="60.333" type="line"/>
      <point x="309" y="-98" type="line"/>
      <point x="337.371" y="-134.971"/>
      <point x="370.322" y="-139.479"/>
      <point x="417.667" y="-139.333" type="curve"/>
      <point x="417.667" y="-210.333" type="line"/>
      <point x="332.768" y="-210.333"/>
      <point x="258.073" y="-177.658"/>
    </contour>
  </outline>
</glyph>
<glyph name="Hbar" format="2">
  <advance width="637"/>
  <unicode hex="0126"/>
  <outline>
    <component base="H"/>
    <contour>
      <point x="30" y="590.333" type="line"/>
      <point x="605.333" y="590.333" type="line"/>
      <point x="605.333" y="506.333" type="line"/>
      <point x="30" y="506.333" type="line"/>
    </contour>
  </outline>
</glyph>
<glyph name="Iogonek" format="2">
  <advance width="254"/>
  <unicode hex="012E"/>
  <outline>
    <component base="I"/>
    <contour>
      <point x="89" y="4.333" type="line"/>
      <point x="162.482" y="4.333" type="line"/>
      <point x="51" y="-108" type="line"/>
      <point x="79.41" y="-145.198"/>
      <point x="115.509" y="-149.708"/>
      <point x="159.667" y="-149.333" type="curve"/>
      <point x="159.667" y="-220.333" type="line"/>
      <point x="75.891" y="-219.56"/>
      <point x="-0.618" y="-186.282"/>
      <point x="-29" y="-102" type="curve"/>
    </contour>
  </outline>
</glyph>
<glyph name="iogonek" format="2">
  <advance width="241"/>
  <unicode hex="012F"/>
  <outline>
    <component base="i"/>
    <contour>
      <point x="79.79" y="0" type="line"/>
      <point x="161.027" y="0" type="line"/>
      <point x="45.123" y="-90.667" type="line"/>
      <point x="71.724" y="-126.348"/>
      <point x="108.781" y="-132.304"/>
      <point x="153.79" y="-132" type="curve"/>
      <point x="153.79" y="-203" type="line"/>
      <point x="69.398" y="-203"/>
      <point x="-6.254" y="-169.45"/>
      <point x="-34.877" y="-84.667" type="curve"/>
    </contour>
  </outline>
</glyph>
<glyph name="IJ" format="2">
  <advance width="643"/>
  <unicode hex="0132"/>
  <outline>
    <contour>
      <point x="81.667" y="178" type="curve"/>
      <point x="179.333" y="178" type="line"/>
      <point x="200.427" y="110.695"/>
      <point x="251.212" y="77"/>
      <point x="321.667" y="77" type="curve" smooth="yes"/>
      <point x="418.302" y="77"/>
      <point x="473.667" y="143.753"/>
      <point x="473.667" y="237.333" type="curve" smooth="yes"/>
      <point x="473.667" y="707" type="line"/>
      <point x="568" y="707" type="line"/>
      <point x="568" y="231" type="line" smooth="yes"/>
      <point x="568" y="87.629"/>
      <point x="462.054" y="-6"/>
      <point x="321.667" y="-6" type="curve" smooth="yes"/>
      <point x="206.849" y="-6"/>
      <point x="103.733" y="61.506"/>
    </contour>
    <contour>
      <point x="74.667" y="707" type="line"/>
      <point x="170.333" y="707" type="line"/>
      <point x="170.333" y="352" type="line"/>
      <point x="74.667" y="352" type="line"/>
    </contour>
  </outline>
</glyph>
<glyph name="Lslash" format="2">
  <advance width="537"/>
  <unicode hex="0141"/>
  <outline>
    <component base="L"/>
    <contour>
      <point x="41.333" y="319.667" type="line"/>
      <point x="42.333" y="396" type="line"/>
      <point x="263" y="488.333" type="line"/>
      <point x="263" y="412" type="line"/>
    </contour>
  </outline>
</glyph>
<glyph name="Eng" format="2">
  <advance width="668"/>
  <unicode hex="014A"/>
  <outline>
    <contour>
      <point x="74.667" y="707" type="line"/>
      <point x="169.667" y="707" type="line"/>
      <point x="499.667" y="180.667" type="line"/>
      <point x="499.667" y="707" type="line"/>
      <point x="594.333" y="707" type="line"/>
      <point x="594.333" y="-24.667" type="line" smooth="yes"/>
      <point x="594.333" y="-116.272"/>
      <point x="550.324" y="-173"/>
      <point x="455" y="-173" type="curve" smooth="yes"/>
      <point x="403" y="-173" type="line"/>
      <point x="403" y="-94.333" type="line"/>
      <point x="494.05" y="-94.333"/>
      <point x="499.702" y="-89.135"/>
      <point x="499.667" y="0" type="curve"/>
      <point x="169.667" y="526.333" type="line"/>
      <point x="169.667" y="0" type="line"/>
      <point x="74.667" y="0" type="line"/>
    </contour>
  </outline>
</glyph>
<glyph name="scaron" format="2">
  <advance width="477"/>
  <unicode hex="0161"/>
  <outline>
    <contour>
      <point x="44.333" y="154" type="curve"/>
      <point x="129.333" y="154" type="line"/>
      <point x="129.333" y="89.282"/>
      <point x="183.806" y="67.333"/>
      <point x="240.333" y="67.333" type="curve" smooth="yes"/>
      <point x="292.146" y="67.333"/>
      <point x="353.333" y="85.541"/>
      <point x="353.333" y="148" type="curve" smooth="yes"/>
      <point x="353.333" y="285.157"/>
      <point x="52" y="166.826"/>
      <point x="52" y="376.667" type="curve" smooth="yes"/>
      <point x="52" y="482.909"/>
      <point x="143.956" y="530.333"/>
      <point x="239" y="530.333" type="curve" smooth="yes"/>
      <point x="335.608" y="530.333"/>
      <point x="431" y="487.804"/>
      <point x="431" y="378" type="curve"/>
      <point x="346.667" y="378" type="line"/>
      <point x="346.667" y="439.962"/>
      <point x="293.623" y="459"/>
      <point x="240.333" y="459" type="curve" smooth="yes"/>
      <point x="190.499" y="459"/>
      <point x="137" y="440.328"/>
      <point x="137" y="381.667" type="curve" smooth="yes"/>
      <point x="137" y="248.298"/>
      <point x="438.333" y="365.311"/>
      <point x="438.333" y="153.667" type="curve" smooth="yes"/>
      <point x="438.333" y="37.059"/>
      <point x="339.159" y="-6"/>
      <point x="237" y="-6" type="curve" smooth="yes"/>
      <point x="134.526" y="-6"/>
      <point x="44.333" y="40.346"/>
    </contour>
    <contour>
      <point x="91.333" y="728.667" type="line"/>
      <point x="167.333" y="728.667" type="line"/>
      <point x="239" y="637.333" type="line"/>
      <point x="309" y="728.667" type="line"/>
      <point x="385" y="728.667" type="line"/>
      <point x="272.333" y="579.333" type="line"/>
      <point x="204" y="579.333" type="line"/>
    </contour>
  </outline>
</glyph>
<glyph name="zcaron" format="2">
  <advance width="466"/>
  <unicode hex="017E"/>
  <outline>
    <contour>
      <point x="411.333" y="445.333" type="line"/>
      <point x="153.333" y="78.667" type="line"/>
      <point x="411.333" y="78.667" type="line"/>
      <point x="411.333" y="0" type="line"/>
      <point x="55.333" y="0" type="line"/>
      <point x="55.333" y="78.667" type="line"/>
      <point x="312" y="445.333" type="line"/>
      <point x="55.333" y="445.333" type="line"/>
      <point x="55.333" y="523.333" type="line"/>
      <point x="411.333" y="523.333" type="line"/>
    </contour>
    <contour>
      <point x="86" y="728.667" type="line"/>
      <point x="162" y="728.667" type="line"/>
      <point x="232.667" y="637.333" type="line"/>
      <point x="303.667" y="728.667" type="line"/>
      <point x="379.333" y="728.667" type="line"/>
      <point x="267" y="579.333" type="line"/>
      <point x="198.333" y="579.333" type="line"/>
    </contour>
  </outline>
</glyph>
<glyph name="florin" format="2">
  <advance width="420"/>
  <unicode hex="0192"/>
  <outline>
    <contour>
      <point x="11.667" y="-72" type="line"/>
      <point x="82.505" y="-72"/>
      <point x="112.297" y="-64.463"/>
      <point x="122.667" y="5.667" type="curve" smooth="yes"/>
      <point x="172.667" y="343.667" type="line"/>
      <point x="88" y="343.667" type="line"/>
      <point x="88" y="424.333" type="line"/>
      <point x="184.667" y="424.333" type="line"/>
      <point x="204.018" y="548.88" type="line" smooth="yes"/>
      <point x="219.449" y="648.165"/>
      <point x="268.421" y="707"/>
      <point x="369.333" y="707" type="curve" smooth="yes"/>
      <point x="408" y="707" type="line"/>
      <point x="408" y="622.653" type="line"/>
      <point x="386.988" y="622.653" type="line" smooth="yes"/>
      <point x="324.946" y="622.653"/>
      <point x="303.875" y="604.375"/>
      <point x="294.667" y="546.333" type="curve" smooth="yes"/>
      <point x="275.333" y="424.333" type="line"/>
      <point x="381.333" y="424.333" type="line"/>
      <point x="381.333" y="343.667" type="line"/>
      <point x="263.333" y="343.667" type="line"/>
      <point x="212.333" y="1.667" type="line" smooth="yes"/>
      <point x="195.024" y="-114.377"/>
      <point x="153.167" y="-157.256"/>
      <point x="39.364" y="-157.256" type="curve" smooth="yes"/>
      <point x="11.667" y="-157.256" type="line"/>
    </contour>
  </outline>
</glyph>
<glyph name="dotlessj" format="2">
  <advance width="236"/>
  <unicode hex="0237"/>
  <outline>
    <contour>
      <point x="-32" y="-78" type="line"/>
      <point x="30.987" y="-78"/>
      <point x="71.333" y="-83.831"/>
      <point x="71.333" y="-6.667" type="curve" smooth="yes"/>
      <point x="71.333" y="523.333" type="line"/>
      <point x="159.333" y="523.333" type="line"/>
      <point x="159.333" y="-12" type="line" smooth="yes"/>
      <point x="159.333" y="-102.922"/>
      <point x="114.382" y="-157.333"/>
      <point x="20.667" y="-157.333" type="curve" smooth="yes"/>
      <point x="-32" y="-157.333" type="line"/>
    </contour>
  </outline>
</glyph>
<glyph name="caron" format="2">
  <advance width="512"/>
  <unicode hex="02C7"/>
  <outline>
    <contour>
      <point x="109" y="728.667" type="line"/>
      <point x="184.333" y="728.667" type="line"/>
      <point x="256" y="637.333" type="line"/>
      <point x="327" y="728.667" type="line"/>
      <point x="402" y="728.667" type="line"/>
      <point x="290" y="579.333" type="line"/>
      <point x="221" y="579.333" type="line"/>
    </contour>
  </outline>
</glyph>
<glyph name="breve" format="2">
  <advance width="512"/>
  <unicode hex="02D8"/>
  <outline>
    <contour>
      <point x="255" y="571.333" type="curve" smooth="yes"/>
      <point x="161.248" y="571.333"/>
      <point x="119.759" y="628.443"/>
      <point x="119.672" y="717.004" type="curve" smooth="yes"/>
      <point x="119.667" y="731" type="line"/>
      <point x="190" y="731" type="line"/>
      <point x="189.982" y="726.483" type="line"/>
      <point x="189.982" y="679.2"/>
      <point x="197.18" y="635.333"/>
      <point x="255" y="635.333" type="curve" smooth="yes"/>
      <point x="312.979" y="635.333"/>
      <point x="320.206" y="682.915"/>
      <point x="320" y="731" type="curve"/>
      <point x="390.333" y="731" type="line"/>
      <point x="390.333" y="714.333" type="line" smooth="yes"/>
      <point x="390.333" y="626.719"/>
      <point x="345.544" y="571.333"/>
    </contour>
  </outline>
</glyph>
<glyph name="ogonek" format="2">
  <advance width="512"/>
  <unicode hex="02DB"/>
  <outline>
    <contour>
      <point x="353.667" y="4.333" type="line"/>
      <point x="424.333" y="4.333" type="line"/>
      <point x="424.016" y="-1.296" type="line"/>
      <point x="315.667" y="-108" type="line"/>
      <point x="341.826" y="-142.877"/>
      <point x="380.176" y="-149.637"/>
      <point x="424.333" y="-149.333" type="curve"/>
      <point x="424.333" y="-220.333" type="line"/>
      <point x="340.554" y="-220.333"/>
      <point x="264.049" y="-186.282"/>
      <point x="235.667" y="-102" type="curve"/>
    </contour>
  </outline>
</glyph>
<glyph name="circumflexcmb" format="2">
  <unicode hex="0302"/>
  <anchor x="0" y="523.333" name="_top"/>
  <outline>
    <contour>
      <point x="-35" y="730.333" type="line"/>
      <point x="34" y="730.333" type="line"/>
      <point x="146" y="580.333" type="line"/>
      <point x="71" y="580.333" type="line"/>
      <point x="0" y="672.333" type="line"/>
      <point x="-71.667" y="580.333" type="line"/>
      <point x="-147" y="580.333" type="line"/>
    </contour>
  </outline>
</glyph>
<glyph name="macroncmb" format="2">
  <unicode hex="0304"/>
  <outline>
    <contour>
      <point x="-136.667" y="684.333" type="line"/>
      <point x="136.667" y="684.333" type="line"/>
      <point x="136.667" y="604" type="line"/>
      <point x="-136.667" y="604" type="line"/>
    </contour>
  </outline>
</glyph>
<glyph name="hungarumlautcmb" format="2">
  <unicode hex="030B"/>
  <outline>
    <contour>
      <point x="73.333" y="722" type="line"/>
      <point x="177.333" y="722" type="line"/>
      <point x="49" y="591.333" type="line"/>
      <point x="-31" y="591.333" type="line"/>
    </contour>
    <contour>
      <point x="46.667" y="722" type="line"/>
      <point x="150.667" y="722" type="line"/>
      <point x="22.333" y="591.333" type="line"/>
      <point x="-57.667" y="591.333" type="line"/>
    </contour>
  </outline>
</glyph>
<glyph name="dotbelowcomb" format="2">
  <unicode hex="0323"/>
  <outline>
    <contour>
      <point x="-46.333" y="-86" type="line"/>
      <point x="47.667" y="-86" type="line"/>
      <point x="47.667" y="-181.333" type="line"/>
      <point x="-46.333" y="-181.333" type="line"/>
    </contour>
  </outline>
</glyph>
<glyph name="cedillacmb" format="2">
  <unicode hex="0327"/>
  <outline>
    <contour>
      <point x="248" y="12.333" type="line"/>
      <point x="323" y="12.333" type="line"/>
      <point x="268.667" y="-156" type="line"/>
      <point x="182" y="-156" type="line"/>
    </contour>
  </outline>
</glyph>
<glyph name="Ljecyr" format="2">
  <advance width="925"/>
  <unicode hex="0409"/>
  <outline>
    <component base="Softcyr" xOffset="338"/>
    <contour>
      <point x="412.667" y="0" type="line"/>
      <point x="412.667" y="707" type="line"/>
      <point x="507.334" y="707" type="line"/>
      <point x="507.334" y="0" type="line"/>
    </contour>
    <contour>
      <point x="133" y="623.333" type="line"/>
      <point x="133" y="707" type="line"/>
      <point x="461" y="707" type="line"/>
      <point x="461" y="623.333" type="line"/>
    </contour>
    <contour>
      <point x="16.9937" y="83.603" type="line"/>
      <point x="50.6987" y="83.64"/>
      <point x="65.8507" y="124.18"/>
      <point x="74.8057" y="237.45" type="curve" smooth="yes"/>
      <point x="112" y="707" type="line"/>
      <point x="206.667" y="707" type="line"/>
      <point x="169.764" y="204.104" type="line" smooth="yes"/>
      <point x="159.182" y="59.254"/>
      <point x="110.682" y="-8"/>
      <point x="16.8667" y="-8" type="curve"/>
    </contour>
  </outline>
</glyph>
<glyph name="Tshecyr" format="2">
  <advance width="616"/>
  <unicode hex="040B"/>
  <outline>
    <contour>
      <point x="438.147" y="622.667" type="line"/>
      <point x="216.667" y="622.667" type="line"/>
      <point x="216.667" y="0" type="line"/>
      <point x="122" y="0" type="line"/>
      <point x="122" y="622.667" type="line"/>
      <point x="7.333" y="622.667" type="line"/>
      <point x="7.333" y="707" type="line"/>
      <point x="438.147" y="707" type="line"/>
    </contour>
    <contour>
      <point x="222.794" y="455.667" type="line"/>
      <point x="259.703" y="498.942"/>
      <point x="317.781" y="519.667"/>
      <point x="372.958" y="519.667" type="curve" smooth="yes"/>
      <point x="493.248" y="519.667"/>
      <point x="553.064" y="442.447"/>
      <point x="553.064" y="333" type="curve" smooth="yes"/>
      <point x="553.064" y="-0.136" type="line"/>
      <point x="464.064" y="-0.136" type="line"/>
      <point x="464.064" y="321.333" type="line" smooth="yes"/>
      <point x="464.064" y="390.709"/>
      <point x="427.787" y="440.667"/>
      <point x="348.808" y="440.667" type="curve" smooth="yes"/>
      <point x="272.227" y="440.667"/>
      <point x="216.73" y="389.462"/>
      <point x="216.73" y="321.333" type="curve"/>
      <point x="180.317" y="321.335" type="line"/>
      <point x="180.349" y="455.893" type="line"/>
    </contour>
  </outline>
</glyph>
<glyph name="Becyr" format="2">
  <advance width="630"/>
  <unicode hex="0411"/>
  <outline>
    <contour>
      <point x="150" y="0" type="line"/>
      <point x="150" y="83.667" type="line"/>
      <point x="332" y="83.667" type="line" smooth="yes"/>
      <point x="413" y="83.667"/>
      <point x="462.667" y="133"/>
      <point x="462.667" y="212.333" type="curve" smooth="yes"/>
      <point x="462.667" y="291"/>
      <point x="414" y="338.333"/>
      <point x="332.667" y="338.333" type="curve" smooth="yes"/>
      <point x="150" y="338.333" type="line"/>
      <point x="150" y="422" type="line"/>
      <point x="342.333" y="422" type="line" smooth="yes"/>
      <point x="475.333" y="422"/>
      <point x="557.333" y="342.667"/>
      <point x="557.333" y="215.333" type="curve" smooth="yes"/>
      <point x="557.333" y="85.667"/>
      <point x="471.667" y="0"/>
      <point x="342.333" y="0" type="curve" smooth="yes"/>
    </contour>
    <contour>
      <point x="154.667" y="623.333" type="line"/>
      <point x="154.667" y="707" type="line"/>
      <point x="505.333" y="707" type="line"/>
      <point x="505.333" y="623.333" type="line"/>
    </contour>
    <contour>
      <point x="74.667" y="0" type="line"/>
      <point x="74.667" y="707" type="line"/>
      <point x="169.333" y="707" type="line"/>
      <point x="169.333" y="0" type="line"/>
    </contour>
  </outline>
</glyph>
<glyph name="Gecyr" format="2">
  <advance width="537"/>
  <unicode hex="0413"/>
  <anchor x="282.667" y="707" name="top"/>
  <outline>
    <contour>
      <point x="74.667" y="0" type="line"/>
      <point x="74.667" y="707" type="line"/>
      <point x="169.333" y="707" type="line"/>
      <point x="169.333" y="0" type="line"/>
    </contour>
    <contour>
      <point x="154.667" y="623.333" type="line"/>
      <point x="154.667" y="707" type="line"/>
      <point x="468" y="707" type="line"/>
      <point x="468" y="623.333" type="line"/>
    </contour>
  </outline>
</glyph>
<glyph name="Ucyr" format="2">
  <advance width="524"/>
  <unicode hex="0423"/>
  <anchor x="262" y="707" name="top"/>
  <outline>
    <contour>
      <point x="274.24" y="109.456" type="line" smooth="yes"/>
      <point x="240.177" y="25.961"/>
      <point x="183.374" y="-8"/>
      <point x="125.147" y="-8" type="curve" smooth="yes"/>
      <point x="84.852" y="-8" type="line"/>
      <point x="84.852" y="80.333" type="line"/>
      <point x="106.487" y="80.556" type="line" smooth="yes"/>
      <point x="134.633" y="80.846"/>
      <point x="168.694" y="90.781"/>
      <point x="189.505" y="144.147" type="curve" smooth="yes"/>
      <point x="228.79" y="242.636" type="line"/>
      <point x="229.871" y="255.8" type="line"/>
      <point x="416" y="707" type="line"/>
      <point x="519.333" y="707" type="line"/>
    </contour>
    <contour>
      <point x="208.173" y="182.23" type="line"/>
      <point x="6" y="707" type="line"/>
      <point x="109" y="707" type="line"/>
      <point x="265.189" y="287.362" type="line"/>
    </contour>
  </outline>
</glyph>
<glyph name="Efcyr" format="2">
  <advance width="693"/>
  <unicode hex="0424"/>
  <anchor x="345.667" y="707" name="top"/>
  <outline>
    <contour>
      <point x="62.333" y="342" type="curve" smooth="yes"/>
      <point x="62.333" y="381.333" type="line" smooth="yes"/>
      <point x="62.333" y="559.667"/>
      <point x="148" y="656.333"/>
      <point x="309.333" y="656.333" type="curve"/>
      <point x="309.333" y="571" type="line"/>
      <point x="207.667" y="571"/>
      <point x="156.667" y="507.333"/>
      <point x="156.667" y="377" type="curve" smooth="yes"/>
      <point x="156.667" y="340" type="line" smooth="yes"/>
      <point x="156.667" y="217"/>
      <point x="208" y="154"/>
      <point x="309.333" y="154" type="curve"/>
      <point x="309.333" y="68.667" type="line"/>
      <point x="149.333" y="68.667"/>
      <point x="62.333" y="164.667"/>
    </contour>
    <contour>
      <point x="299.333" y="707" type="line"/>
      <point x="394" y="707" type="line"/>
      <point x="394" y="0" type="line"/>
      <point x="299.333" y="0" type="line"/>
    </contour>
    <contour>
      <point x="631" y="383" type="curve" smooth="yes"/>
      <point x="631" y="343.667" type="line" smooth="yes"/>
      <point x="631" y="165.333"/>
      <point x="545.333" y="68.667"/>
      <point x="384" y="68.667" type="curve"/>
      <point x="384" y="154" type="line"/>
      <point x="485.666" y="154"/>
      <point x="536.666" y="217.667"/>
      <point x="536.666" y="348" type="curve" smooth="yes"/>
      <point x="536.666" y="385" type="line" smooth="yes"/>
      <point x="536.666" y="508"/>
      <point x="485.333" y="571"/>
      <point x="384" y="571" type="curve"/>
      <point x="384" y="656.333" type="line"/>
      <point x="544" y="656.333"/>
      <point x="631" y="560.333"/>
    </contour>
  </outline>
</glyph>
<glyph name="Shacyr" format="2">
  <advance width="845"/>
  <unicode hex="0428"/>
  <outline>
    <contour>
      <point x="75.137" y="-0.125" type="line"/>
      <point x="75.137" y="83.54" type="line"/>
      <point x="769.877" y="83.54" type="line"/>
      <point x="769.877" y="-0.125" type="line"/>
    </contour>
    <contour>
      <point x="675.333" y="0" type="line"/>
      <point x="675.333" y="707" type="line"/>
      <point x="770" y="707" type="line"/>
      <point x="770" y="0" type="line"/>
    </contour>
    <contour>
      <point x="75.1685" y="0" type="line"/>
      <point x="75.1685" y="707" type="line"/>
      <point x="169.836" y="707" type="line"/>
      <point x="169.836" y="0" type="line"/>
    </contour>
    <contour>
      <point x="374.521" y="0" type="line"/>
      <point x="374.521" y="707" type="line"/>
      <point x="469.188" y="707" type="line"/>
      <point x="469.188" y="0" type="line"/>
    </contour>
  </outline>
</glyph>
<glyph name="Shchacyr" format="2">
  <advance width="860"/>
  <unicode hex="0429"/>
  <outline>
    <contour>
      <point x="75.137" y="-0.125" type="line"/>
      <point x="75.137" y="83.54" type="line"/>
      <point x="826.544" y="83.54" type="line"/>
      <point x="826.544" y="-0.125" type="line"/>
    </contour>
    <contour>
      <point x="675.333" y="0" type="line"/>
      <point x="675.333" y="707" type="line"/>
      <point x="770" y="707" type="line"/>
      <point x="770" y="0" type="line"/>
    </contour>
    <contour>
      <point x="75.1685" y="0" type="line"/>
      <point x="75.1685" y="707" type="line"/>
      <point x="169.836" y="707" type="line"/>
      <point x="169.836" y="0" type="line"/>
    </contour>
    <contour>
      <point x="374.521" y="0" type="line"/>
      <point x="374.521" y="707" type="line"/>
      <point x="469.188" y="707" type="line"/>
      <point x="469.188" y="0" type="line"/>
    </contour>
    <contour>
      <point x="755.41" y="-169.94" type="line"/>
      <point x="755.41" y="83.756" type="line"/>
      <point x="850.076" y="83.757" type="line"/>
      <point x="850.076" y="-169.94" type="line"/>
    </contour>
  </outline>
</glyph>
<glyph name="Yucyr" format="2">
  <advance width="827"/>
  <unicode hex="042E"/>
  <outline>
    <contour>
      <point x="320" y="318.333" type="line"/>
      <point x="169.667" y="318.333" type="line"/>
      <point x="169.667" y="0" type="line"/>
      <point x="74.667" y="0" type="line"/>
      <point x="74.667" y="707" type="line"/>
      <point x="169.667" y="707" type="line"/>
      <point x="169.667" y="402" type="line"/>
      <point x="320" y="402" type="line"/>
    </contour>
    <contour>
      <point x="269" y="265.446" type="curve" smooth="yes"/>
      <point x="269" y="441.225" type="line" smooth="yes"/>
      <point x="269" y="619.634"/>
      <point x="356.521" y="716.333"/>
      <point x="518" y="716.333" type="curve" smooth="yes"/>
      <point x="678.562" y="716.333"/>
      <point x="765.667" y="619.577"/>
      <point x="765.667" y="441.225" type="curve" smooth="yes"/>
      <point x="765.667" y="265.446" type="line" smooth="yes"/>
      <point x="765.667" y="89.214"/>
      <point x="676.918" y="-8"/>
      <point x="516" y="-8" type="curve" smooth="yes"/>
      <point x="355.726" y="-8"/>
      <point x="269" y="88.011"/>
    </contour>
    <contour>
      <point x="671" y="263.444" type="curve" smooth="yes"/>
      <point x="671" y="436.901" type="line" smooth="yes"/>
      <point x="671" y="564.616"/>
      <point x="617.429" y="631"/>
      <point x="514.497" y="631" type="curve" smooth="yes"/>
      <point x="412.811" y="631"/>
      <point x="363.334" y="567.504"/>
      <point x="363.334" y="436.901" type="curve" smooth="yes"/>
      <point x="363.334" y="263.444" type="line" smooth="yes"/>
      <point x="363.334" y="140.427"/>
      <point x="415.582" y="77.333"/>
      <point x="517.216" y="77.333" type="curve" smooth="yes"/>
      <point x="618.249" y="77.333"/>
      <point x="671" y="141.162"/>
    </contour>
  </outline>
</glyph>
<glyph name="becyr" format="2">
  <advance width="524"/>
  <unicode hex="0431"/>
  <anchor x="268" y="707" name="top"/>
  <outline>
    <contour>
      <point x="69.667" y="223.854" type="curve" smooth="yes"/>
      <point x="69.667" y="439.521" type="line" smooth="yes"/>
      <point x="69.667" y="529.901"/>
      <point x="99.587" y="611.738"/>
      <point x="172.953" y="644.551" type="curve" smooth="yes"/>
      <point x="238.462" y="673.702"/>
      <point x="334.052" y="672.964"/>
      <point x="397.792" y="707" type="curve"/>
      <point x="397.792" y="614.902" type="line"/>
      <point x="334.326" y="588.087"/>
      <point x="268.411" y="593.591"/>
      <point x="217.906" y="569.309" type="curve" smooth="yes"/>
      <point x="177.389" y="549.856"/>
      <point x="158" y="494.088"/>
      <point x="158" y="443.618" type="curve" smooth="yes"/>
      <point x="158" y="417.305" type="line"/>
      <point x="187.601" y="467.619"/>
      <point x="234.607" y="490.333"/>
      <point x="292.19" y="490.333" type="curve" smooth="yes"/>
      <point x="420.682" y="490.333"/>
      <point x="468.333" y="390.439"/>
      <point x="468.333" y="275.421" type="curve" smooth="yes"/>
      <point x="468.333" y="209.581" type="line" smooth="yes"/>
      <point x="468.333" y="96.297"/>
      <point x="399.849" y="-6"/>
      <point x="272.72" y="-6" type="curve" smooth="yes"/>
      <point x="135.701" y="-6"/>
      <point x="69.667" y="83.027"/>
    </contour>
    <contour>
      <point x="379.333" y="213.587" type="curve" smooth="yes"/>
      <point x="379.333" y="271.081" type="line" smooth="yes"/>
      <point x="379.333" y="343.151"/>
      <point x="356.302" y="411.333"/>
      <point x="272.557" y="411.333" type="curve" smooth="yes"/>
      <point x="188.691" y="411.333"/>
      <point x="157.667" y="341.025"/>
      <point x="157.667" y="267.071" type="curve" smooth="yes"/>
      <point x="157.667" y="214.256" type="line" smooth="yes"/>
      <point x="157.667" y="139.949"/>
      <point x="192.822" y="72.667"/>
      <point x="275.261" y="72.667" type="curve" smooth="yes"/>
      <point x="358.192" y="72.667"/>
      <point x="379.333" y="143.333"/>
    </contour>
  </outline>
</glyph>
<glyph name="zecyr" format="2">
  <advance width="476"/>
  <unicode hex="0437"/>
  <anchor x="223.667" y="707" name="top"/>
  <outline>
    <contour>
      <point x="420.244" y="143.056" type="curve" smooth="yes"/>
      <point x="420.244" y="47.74"/>
      <point x="354.908" y="-6"/>
      <point x="235.226" y="-6" type="curve" smooth="yes"/>
      <point x="132.283" y="-6"/>
      <point x="55.517" y="58.383"/>
      <point x="55.517" y="146.626" type="curve"/>
      <point x="141.735" y="146.688" type="line"/>
      <point x="141.735" y="95.028"/>
      <point x="181.614" y="57.648"/>
      <point x="238.913" y="57.573" type="curve" smooth="yes"/>
      <point x="300.17" y="57.49"/>
      <point x="331.1" y="87.683"/>
      <point x="331.1" y="147.596" type="curve" smooth="yes"/>
      <point x="331.1" y="204.999"/>
      <point x="295.897" y="234.85"/>
      <point x="228.205" y="234.85" type="curve" smooth="yes"/>
      <point x="161.987" y="234.85" type="line"/>
      <point x="161.987" y="298.273" type="line"/>
      <point x="223.036" y="298.273" type="line" smooth="yes"/>
      <point x="288.592" y="298.273"/>
      <point x="323.136" y="326.916"/>
      <point x="323.136" y="381.293" type="curve" smooth="yes"/>
      <point x="323.136" y="438.638"/>
      <point x="292.548" y="466.766"/>
      <point x="230.2" y="466.757" type="curve" smooth="yes"/>
      <point x="177.596" y="466.749"/>
      <point x="141.735" y="431.615"/>
      <point x="141.735" y="376.739" type="curve"/>
      <point x="55.517" y="376.707" type="line"/>
      <point x="55.517" y="462.558"/>
      <point x="128.603" y="530.333"/>
      <point x="235.063" y="530.333" type="curve" smooth="yes"/>
      <point x="348.514" y="530.333"/>
      <point x="412.197" y="477.035"/>
      <point x="412.197" y="384.941" type="curve" smooth="yes"/>
      <point x="412.197" y="332.014"/>
      <point x="384.124" y="287.726"/>
      <point x="335.81" y="269.175" type="curve"/>
      <point x="391.647" y="249.913"/>
      <point x="420.244" y="204.013"/>
    </contour>
  </outline>
</glyph>
<glyph name="kacyr" format="2">
  <advance width="514"/>
  <unicode hex="043A"/>
  <anchor x="247.333" y="523.333" name="top"/>
  <outline>
    <contour>
      <point x="158" y="523.333" type="line"/>
      <point x="158" y="0" type="line"/>
      <point x="69.667" y="0" type="line"/>
      <point x="69.667" y="523.333" type="line"/>
    </contour>
    <contour>
      <point x="224.447" y="251.229" type="line"/>
      <point x="302.892" y="296.357" type="line"/>
      <point x="496.667" y="0" type="line"/>
      <point x="389" y="0" type="line"/>
    </contour>
    <contour>
      <point x="148.176" y="259.87" type="line"/>
      <point x="148.176" y="286.278" type="line"/>
      <point x="203.217" y="286.261" type="line"/>
      <point x="362.721" y="523.333" type="line"/>
      <point x="469.054" y="523.333" type="line"/>
      <point x="279.785" y="259.859" type="line"/>
    </contour>
    <contour>
      <point x="130" y="246" type="line"/>
      <point x="130" y="309.667" type="line"/>
      <point x="280.148" y="309.667" type="line"/>
      <point x="280.148" y="246" type="line"/>
    </contour>
  </outline>
</glyph>
<glyph name="elcyr" format="2">
  <advance width="503"/>
  <unicode hex="043B"/>
  <outline>
    <contour>
      <point x="17.1777" y="85.334" type="line"/>
      <point x="51.9817" y="85.373"/>
      <point x="70.4137" y="110.085"/>
      <point x="79.0037" y="192.903" type="curve" smooth="yes"/>
      <point x="113.068" y="523.331" type="line"/>
      <point x="201" y="523.331" type="line"/>
      <point x="165.32" y="152.984" type="line" smooth="yes"/>
      <point x="155.674" y="52.345"/>
      <point x="100.661" y="0"/>
      <point x="17.1777" y="0" type="curve"/>
    </contour>
    <contour>
      <point x="141" y="449.667" type="line"/>
      <point x="141" y="523.333" type="line"/>
      <point x="399" y="523.333" type="line"/>
      <point x="399" y="449.667" type="line"/>
    </contour>
    <contour>
      <point x="344.334" y="523.333" type="line"/>
      <point x="433" y="523.333" type="line"/>
      <point x="433" y="0" type="line"/>
      <point x="344.334" y="0" type="line"/>
    </contour>
  </outline>
</glyph>
<glyph name="emcyr" format="2">
  <advance width="683"/>
  <unicode hex="043C"/>
  <outline>
    <contour>
      <point x="537.684" y="523.333" type="curve"/>
      <point x="613.017" y="523.333" type="line"/>
      <point x="613.017" y="0" type="line"/>
      <point x="524.351" y="0" type="line"/>
      <point x="524.351" y="346.806" type="line" smooth="yes"/>
      <point x="524.351" y="395.279"/>
      <point x="532.595" y="474"/>
    </contour>
    <contour>
      <point x="315.135" y="80" type="line"/>
      <point x="342.251" y="79.92" type="line"/>
      <point x="342.251" y="202.149" type="line"/>
      <point x="340.135" y="202.333" type="line"/>
      <point x="332.467" y="223.227"/>
      <point x="322.02" y="245.626"/>
      <point x="312.499" y="263.35" type="curve" smooth="yes"/>
      <point x="171.329" y="523.195" type="line"/>
      <point x="143.382" y="523.338" type="line"/>
      <point x="143.382" y="387.966" type="line"/>
      <point x="159.996" y="387.862" type="line"/>
      <point x="166.005" y="367.759"/>
      <point x="172.615" y="347.956"/>
      <point x="187.316" y="320.089" type="curve" smooth="yes"/>
    </contour>
    <contour>
      <point x="70.3335" y="523.333" type="line"/>
      <point x="70.3335" y="0" type="line"/>
      <point x="159" y="0" type="line"/>
      <point x="159" y="346.806" type="line" smooth="yes"/>
      <point x="159" y="395.279"/>
      <point x="150.756" y="474"/>
      <point x="145.667" y="523.333" type="curve"/>
    </contour>
    <contour>
      <point x="369.074" y="80" type="line"/>
      <point x="341.958" y="79.92" type="line"/>
      <point x="341.958" y="202.149" type="line"/>
      <point x="344.074" y="202.333" type="line"/>
      <point x="351.742" y="223.227"/>
      <point x="362.189" y="245.626"/>
      <point x="371.71" y="263.35" type="curve" smooth="yes"/>
      <point x="512.88" y="523.195" type="line"/>
      <point x="540.827" y="523.338" type="line"/>
      <point x="540.827" y="387.966" type="line"/>
      <point x="524.213" y="387.862" type="line"/>
      <point x="518.204" y="367.759"/>
      <point x="511.594" y="347.956"/>
      <point x="496.893" y="320.089" type="curve" smooth="yes"/>
    </contour>
  </outline>
</glyph>
<glyph name="encyr" format="2">
  <advance width="536"/>
  <unicode hex="043D"/>
  <anchor x="265" y="523.333" name="top"/>
  <outline>
    <component base="dotlessi" xOffset="-7"/>
    <component base="dotlessi" xOffset="300.684"/>
    <contour>
      <point x="106.667" y="246" type="line"/>
      <point x="106.667" y="309.667" type="line"/>
      <point x="427.495" y="309.667" type="line"/>
      <point x="427.495" y="246" type="line"/>
    </contour>
  </outline>
</glyph>
<glyph name="checyr" format="2">
  <advance width="533"/>
  <unicode hex="0447"/>
  <outline>
    <contour>
      <point x="385.358" y="251.159" type="line"/>
      <point x="385.667" y="178.258" type="line"/>
      <point x="353.773" y="159.323"/>
      <point x="301.18" y="147"/>
      <point x="241" y="147" type="curve" smooth="yes"/>
      <point x="126.432" y="147"/>
      <point x="69" y="224.444"/>
      <point x="69" y="333.667" type="curve" smooth="yes"/>
      <point x="69" y="523.333" type="line"/>
      <point x="158" y="523.333" type="line"/>
      <point x="158" y="345.333" type="line" smooth="yes"/>
      <point x="158" y="276.956"/>
      <point x="193.049" y="226"/>
      <point x="265.667" y="226" type="curve" smooth="yes"/>
      <point x="323.068" y="226"/>
      <point x="354.597" y="234.31"/>
      <point x="375.333" y="250.86" type="curve"/>
    </contour>
    <contour>
      <point x="375.333" y="0" type="line"/>
      <point x="375.333" y="523.333" type="line"/>
      <point x="463.667" y="523.333" type="line"/>
      <point x="463.667" y="0" type="line"/>
    </contour>
  </outline>
</glyph>
<glyph name="hardcyr" format="2">
  <advance width="575"/>
  <unicode hex="044A"/>
  <outline>
    <contour>
      <point x="518.91" y="145.807" type="curve" smooth="yes"/>
      <point x="518.91" y="53.514"/>
      <point x="456.39" y="0"/>
      <point x="348.566" y="0" type="curve" smooth="yes"/>
      <point x="196.184" y="0" type="line"/>
      <point x="196.184" y="63.774" type="line"/>
      <point x="332.281" y="63.58" type="line" smooth="yes"/>
      <point x="390.973" y="63.494"/>
      <point x="429.767" y="88.468"/>
      <point x="429.767" y="150.544" type="curve" smooth="yes"/>
      <point x="429.767" y="211.731"/>
      <point x="389.938" y="234.85"/>
      <point x="332.777" y="234.85" type="curve" smooth="yes"/>
      <point x="196.184" y="234.85" type="line"/>
      <point x="196.184" y="298.273" type="line"/>
      <point x="348.461" y="298.273" type="line" smooth="yes"/>
      <point x="452.362" y="298.273"/>
      <point x="518.91" y="238.757"/>
    </contour>
    <contour>
      <point x="140.667" y="523.333" type="line"/>
      <point x="229.333" y="523.333" type="line"/>
      <point x="229.333" y="0" type="line"/>
      <point x="140.667" y="0" type="line"/>
    </contour>
    <contour>
      <point x="0.506" y="459.667" type="line"/>
      <point x="0.506" y="523.333" type="line"/>
      <point x="193.2" y="523.333" type="line"/>
      <point x="193.2" y="459.667" type="line"/>
    </contour>
  </outline>
</glyph>
<glyph name="ereversedcyr" format="2">
  <advance width="516"/>
  <unicode hex="044D"/>
  <anchor x="259.667" y="523.333" name="top"/>
  <outline>
    <contour>
      <point x="459.336" y="210.333" type="line" smooth="yes"/>
      <point x="459.336" y="74.199"/>
      <point x="391.677" y="-6"/>
      <point x="252.002" y="-6" type="curve" smooth="yes"/>
      <point x="141.666" y="-6"/>
      <point x="54.3365" y="55.263"/>
      <point x="54.3365" y="172.333" type="curve" smooth="yes"/>
      <point x="54.3365" y="177.333" type="line"/>
      <point x="140.002" y="177.333" type="line"/>
      <point x="139.232" y="107.939"/>
      <point x="184.377" y="72.667"/>
      <point x="250.669" y="72.667" type="curve" smooth="yes"/>
      <point x="342.028" y="72.667"/>
      <point x="370.669" y="130.418"/>
      <point x="370.669" y="213.333" type="curve" smooth="yes"/>
      <point x="370.669" y="310.667" type="line" smooth="yes"/>
      <point x="370.669" y="393.553"/>
      <point x="340.715" y="450.667"/>
      <point x="250.002" y="450.667" type="curve" smooth="yes"/>
      <point x="183.455" y="450.667"/>
      <point x="139.262" y="413.926"/>
      <point x="140.002" y="345" type="curve"/>
      <point x="54.3365" y="345" type="line"/>
      <point x="53.7805" y="467.327"/>
      <point x="135.438" y="530.333"/>
      <point x="252.669" y="530.333" type="curve" smooth="yes"/>
      <point x="391.579" y="530.333"/>
      <point x="459.336" y="449.133"/>
      <point x="459.336" y="314" type="curve" smooth="yes"/>
    </contour>
    <contour>
      <point x="208.174" y="246" type="line"/>
      <point x="208.174" y="309.667" type="line"/>
      <point x="404.669" y="309.667" type="line"/>
      <point x="404.669" y="246" type="line"/>
    </contour>
  </outline>
</glyph>
<glyph name="yucyr" format="2">
  <advance width="713"/>
  <unicode hex="044E"/>
  <anchor x="495" y="523.333" name="top"/>
  <outline>
    <component base="dotlessi" xOffset="-7"/>
    <component base="o" xScale="1" xOffset="194.333"/>
    <contour>
      <point x="123" y="246" type="line"/>
      <point x="123" y="309.667" type="line"/>
      <point x="293.234" y="309.667" type="line"/>
      <point x="293.234" y="246" type="line"/>
    </contour>
  </outline>
</glyph>
<glyph name="yacyr" format="2">
  <advance width="514"/>
  <unicode hex="044F"/>
  <outline>
    <component base="dotlessi" xScale="-1" xOffset="520.577"/>
    <contour>
      <point x="204.37" y="286.638" type="line"/>
      <point x="194.946" y="236.025" type="line"/>
      <point x="114.849" y="252.908"/>
      <point x="72.3801" y="296.482"/>
      <point x="72.3801" y="381.837" type="curve" smooth="yes"/>
      <point x="72.3801" y="479.257"/>
      <point x="143.538" y="523.333"/>
      <point x="240.734" y="523.333" type="curve" smooth="yes"/>
      <point x="387.06" y="523.333" type="line"/>
      <point x="387.06" y="459.724" type="line"/>
      <point x="254.953" y="459.76" type="line" smooth="yes"/>
      <point x="199.763" y="459.773"/>
      <point x="161.441" y="436.807"/>
      <point x="161.441" y="377.846" type="curve" smooth="yes"/>
      <point x="161.441" y="319.257"/>
      <point x="201.538" y="298.273"/>
      <point x="255.449" y="298.273" type="curve" smooth="yes"/>
      <point x="387.06" y="298.273" type="line"/>
      <point x="387.06" y="234.85" type="line"/>
      <point x="194.513" y="234.85" type="line"/>
      <point x="287.242" y="269.953" type="line"/>
      <point x="150.053" y="0" type="line"/>
      <point x="56.2011" y="0" type="line"/>
    </contour>
  </outline>
</glyph>
<glyph name="djecyr" format="2">
  <advance width="534"/>
  <unicode hex="0452"/>
  <anchor x="113.333" y="707" name="top"/>
  <outline>
    <contour>
      <point x="272.251" y="-78" type="line"/>
      <point x="335.238" y="-78"/>
      <point x="375.584" y="-65.887"/>
      <point x="375.584" y="-6.667" type="curve" smooth="yes"/>
      <point x="375.584" y="185.498" type="line"/>
      <point x="464.584" y="185.498" type="line"/>
      <point x="464.584" y="-12" type="line" smooth="yes"/>
      <point x="464.584" y="-102.922"/>
      <point x="418.632" y="-157.333"/>
      <point x="324.918" y="-157.333" type="curve" smooth="yes"/>
      <point x="272.251" y="-157.333" type="line"/>
    </contour>
    <contour>
      <point x="69.667" y="707" type="line"/>
      <point x="158" y="707" type="line"/>
      <point x="158" y="465.667" type="line"/>
      <point x="189.63" y="508.942"/>
      <point x="239.515" y="529.667"/>
      <point x="292.333" y="529.667" type="curve" smooth="yes"/>
      <point x="407.163" y="529.667"/>
      <point x="464.333" y="452.447"/>
      <point x="464.333" y="343" type="curve" smooth="yes"/>
      <point x="464.333" y="0" type="line"/>
      <point x="375.333" y="0" type="line"/>
      <point x="375.333" y="331.333" type="line" smooth="yes"/>
      <point x="375.333" y="400.709"/>
      <point x="341.402" y="450.667"/>
      <point x="267.667" y="450.667" type="curve" smooth="yes"/>
      <point x="196.121" y="450.667"/>
      <point x="158" y="399.462"/>
      <point x="158" y="331.333" type="curve" smooth="yes"/>
      <point x="158" y="0" type="line"/>
      <point x="69.667" y="0" type="line"/>
    </contour>
    <contour>
      <point x="0" y="651.726" type="line"/>
      <point x="273.333" y="651.726" type="line"/>
      <point x="273.333" y="571.393" type="line"/>
      <point x="0" y="571.393" type="line"/>
    </contour>
  </outline>
</glyph>
<glyph name="eukrcyr" format="2">
  <advance width="516"/>
  <unicode hex="0454"/>
  <outline>
    <component base="c"/>
    <contour>
      <point x="110" y="246" type="line"/>
      <point x="110" y="309.667" type="line"/>
      <point x="306.495" y="309.667" type="line"/>
      <point x="306.495" y="246" type="line"/>
    </contour>
  </outline>
</glyph>
<glyph name="ljecyr" format="2">
  <advance width="752"/>
  <unicode hex="0459"/>
  <outline>
    <contour>
      <point x="17.1777" y="85.334" type="line"/>
      <point x="51.9817" y="85.373"/>
      <point x="70.4137" y="110.085"/>
      <point x="79.0037" y="192.903" type="curve" smooth="yes"/>
      <point x="113.068" y="523.331" type="line"/>
      <point x="201" y="523.331" type="line"/>
      <point x="165.32" y="152.984" type="line" smooth="yes"/>
      <point x="155.674" y="52.345"/>
      <point x="100.661" y="0"/>
      <point x="17.1777" y="0" type="curve"/>
    </contour>
    <contour>
      <point x="141" y="449.667" type="line"/>
      <point x="141" y="523.333" type="line"/>
      <point x="399" y="523.333" type="line"/>
      <point x="399" y="449.667" type="line"/>
    </contour>
    <contour>
      <point x="344.334" y="523.333" type="line"/>
      <point x="433" y="523.333" type="line"/>
      <point x="433" y="0" type="line"/>
      <point x="344.334" y="0" type="line"/>
    </contour>
    <contour>
      <point x="695.91" y="145.807" type="curve" smooth="yes"/>
      <point x="695.91" y="53.514"/>
      <point x="633.39" y="0"/>
      <point x="525.566" y="0" type="curve" smooth="yes"/>
      <point x="373.184" y="0" type="line"/>
      <point x="373.184" y="63.774" type="line"/>
      <point x="509.281" y="63.58" type="line" smooth="yes"/>
      <point x="567.973" y="63.494"/>
      <point x="606.767" y="88.468"/>
      <point x="606.767" y="150.544" type="curve" smooth="yes"/>
      <point x="606.767" y="211.731"/>
      <point x="566.938" y="234.85"/>
      <point x="509.777" y="234.85" type="curve" smooth="yes"/>
      <point x="373.184" y="234.85" type="line"/>
      <point x="373.184" y="298.273" type="line"/>
      <point x="525.461" y="298.273" type="line" smooth="yes"/>
      <point x="629.362" y="298.273"/>
      <point x="695.91" y="238.757"/>
    </contour>
    <contour>
      <point x="344.334" y="523.333" type="line"/>
      <point x="433" y="523.333" type="line"/>
      <point x="433" y="0" type="line"/>
      <point x="344.334" y="0" type="line"/>
    </contour>
  </outline>
</glyph>
<glyph name="dzhecyr" format="2">
  <advance width="527"/>
  <unicode hex="045F"/>
  <outline>
    <component base="dotlessi" xOffset="-7"/>
    <component base="dotlessi" xOffset="291.351"/>
    <contour>
      <point x="99.3333" y="0" type="line"/>
      <point x="99.3333" y="63.667" type="line"/>
      <point x="420.161" y="63.667" type="line"/>
      <point x="420.161" y="0" type="line"/>
    </contour>
    <contour>
      <point x="217.551" y="-170.029" type="line"/>
      <point x="217.551" y="63.6667" type="line"/>
      <point x="309.551" y="63.6667" type="line"/>
      <point x="309.551" y="-170.029" type="line"/>
    </contour>
  </outline>
</glyph>
<glyph name="Germandbls" format="2">
  <advance width="705"/>
  <unicode hex="1E9E"/>
  <outline>
    <contour>
      <point x="77" y="1" type="line"/>
      <point x="77" y="483.667" type="line" smooth="yes"/>
      <point x="77" y="645.594"/>
      <point x="144.218" y="714.022"/>
      <point x="307.941" y="714.022" type="curve" smooth="yes"/>
      <point x="417.287" y="714.022"/>
      <point x="508.3" y="684.297"/>
      <point x="582.333" y="600.667" type="curve"/>
      <point x="423.667" y="408.333" type="line"/>
      <point x="555.024" y="403.635"/>
      <point x="645.333" y="344.985"/>
      <point x="645.333" y="203" type="curve" smooth="yes"/>
      <point x="645.333" y="27.443"/>
      <point x="538.595" y="-3"/>
      <point x="387" y="-3" type="curve" smooth="yes"/>
      <point x="279" y="-3" type="line"/>
      <point x="279" y="84.667" type="line"/>
      <point x="408.333" y="84.667" type="line" smooth="yes"/>
      <point x="499.962" y="84.667"/>
      <point x="555.333" y="100.377"/>
      <point x="555.333" y="202" type="curve" smooth="yes"/>
      <point x="555.333" y="310.953"/>
      <point x="455.403" y="319.647"/>
      <point x="363.52" y="319.647" type="curve" smooth="yes"/>
      <point x="309.333" y="319.647" type="line"/>
      <point x="309.333" y="402.667" type="line"/>
      <point x="466" y="592" type="line"/>
      <point x="410.173" y="626.691"/>
      <point x="377.25" y="631.333"/>
      <point x="313" y="631.333" type="curve" smooth="yes"/>
      <point x="209.444" y="631.333"/>
      <point x="167" y="597.407"/>
      <point x="167" y="489.667" type="curve" smooth="yes"/>
      <point x="167" y="1" type="line"/>
    </contour>
  </outline>
</glyph>
<glyph name="quoteleft" format="2">
  <advance width="183"/>
  <unicode hex="2018"/>
  <outline>
    <contour>
      <point x="134.333" y="485.667" type="line"/>
      <point x="49" y="485.667" type="line"/>
      <point x="49" y="668.667" type="line"/>
      <point x="134.333" y="744.667" type="line"/>
    </contour>
  </outline>
</glyph>
<glyph name="quotesinglbase" format="2">
  <advance width="183"/>
  <unicode hex="201A"/>
  <outline>
    <contour>
      <point x="49" y="110" type="line"/>
      <point x="134.333" y="110" type="line"/>
      <point x="134.333" y="-73" type="line"/>
      <point x="49" y="-148.667" type="line"/>
    </contour>
  </outline>
</glyph>
<glyph name="acutecomb.loclPLK" format="2">
  <outline>
    <contour>
      <point x="-16" y="722" type="line"/>
      <point x="88.333" y="722" type="line"/>
      <point x="34.333" y="591.333" type="line"/>
      <point x="-45.333" y="591.333" type="line"/>
    </contour>
  </outline>
</glyph>
<glyph name="four.dnom" format="2">
  <advance width="344"/>
  <outline>
    <contour>
      <point x="315.333" y="70.667" type="line"/>
      <point x="279.333" y="70.667" type="line"/>
      <point x="279.333" y="0" type="line"/>
      <point x="197.667" y="0" type="line"/>
      <point x="197.667" y="70.667" type="line"/>
      <point x="35" y="70.667" type="line"/>
      <point x="35" y="141.333" type="line"/>
      <point x="154" y="427.667" type="line"/>
      <point x="235.333" y="427.667" type="line"/>
      <point x="117.333" y="141.333" type="line"/>
      <point x="197.667" y="141.333" type="line"/>
      <point x="197.667" y="238.667" type="line"/>
      <point x="279.333" y="238.667" type="line"/>
      <point x="279.333" y="141.333" type="line"/>
      <point x="315.333" y="141.333" type="line"/>
    </contour>
  </outline>
</glyph>
<glyph name="four.numr" format="2">
  <advance width="344"/>
  <outline>
    <contour>
      <point x="315.333" y="349.333" type="line"/>
      <point x="279.333" y="349.333" type="line"/>
      <point x="279.333" y="279.333" type="line"/>
      <point x="197.667" y="279.333" type="line"/>
      <point x="197.667" y="349.333" type="line"/>
      <point x="35" y="349.333" type="line"/>
      <point x="35" y="420.333" type="line"/>
      <point x="154" y="707" type="line"/>
      <point x="235.333" y="707" type="line"/>
      <point x="117.333" y="420.333" type="line"/>
      <point x="197.667" y="420.333" type="line"/>
      <point x="197.667" y="517" type="line"/>
      <point x="279.333" y="517" type="line"/>
      <point x="279.333" y="420.333" type="line"/>
      <point x="315.333" y="420.333" type="line"/>
    </contour>
  </outline>
</glyph>
<glyph name="four.tosf" format="2">
  <advance width="524"/>
  <outline>
    <contour>
      <point x="487.333" y="0" type="line"/>
      <point x="416.667" y="0" type="line"/>
      <point x="416.667" y="-160" type="line"/>
      <point x="322" y="-160" type="line"/>
      <point x="322" y="0" type="line"/>
      <point x="55.333" y="0" type="line"/>
      <point x="55.333" y="84.333" type="line"/>
      <point x="262" y="533.667" type="line"/>
      <point x="356.667" y="533.667" type="line"/>
      <point x="150" y="84.333" type="line"/>
      <point x="322" y="84.333" type="line"/>
      <point x="322" y="262" type="line"/>
      <point x="416.667" y="262" type="line"/>
      <point x="416.667" y="84.333" type="line"/>
      <point x="487.333" y="84.333" type="line"/>
    </contour>
  </outline>
</glyph>
<glyph name="hardcyr.loclBGR" format="2">
  <advance width="577"/>
  <outline>
    <component base="softcyr.loclBGR" xScale="1" xOffset="60.333"/>
    <contour>
      <point x="0.506" y="459.667" type="line"/>
      <point x="0.506" y="523.333" type="line"/>
      <point x="193.2" y="523.333" type="line"/>
      <point x="193.2" y="459.667" type="line"/>
    </contour>
  </outline>
</glyph>
<glyph name="one.osf" format="2">
  <advance width="343"/>
  <outline>
    <contour>
      <point x="167.333" y="426.667" type="line"/>
      <point x="46.333" y="336.667" type="line"/>
      <point x="46.333" y="441" type="line"/>
      <point x="166.667" y="533.667" type="line"/>
      <point x="261.333" y="533.667" type="line"/>
      <point x="261.333" y="0" type="line"/>
      <point x="167.333" y="0" type="line"/>
    </contour>
  </outline>
</glyph>
<glyph name="softcyr.loclBGR" format="2">
  <advance width="517"/>
  <outline>
    <contour>
      <point x="461.244" y="208.487" type="curve" smooth="yes"/>
      <point x="461.244" y="86.967"/>
      <point x="386.29" y="-6"/>
      <point x="265.593" y="-6" type="curve" smooth="yes"/>
      <point x="142.831" y="-6"/>
      <point x="69.704" y="61.652"/>
      <point x="69.704" y="175.331" type="curve"/>
      <point x="158.371" y="175.325" type="line"/>
      <point x="158.371" y="109.835"/>
      <point x="196.615" y="72.827"/>
      <point x="264.569" y="72.58" type="curve" smooth="yes"/>
      <point x="329.63" y="72.34"/>
      <point x="372.1" y="124.365"/>
      <point x="372.1" y="204.277" type="curve" smooth="yes"/>
      <point x="372.1" y="272.337"/>
      <point x="328.062" y="319.061"/>
      <point x="263.868" y="319.061" type="curve" smooth="yes"/>
      <point x="215.222" y="319.061"/>
      <point x="158.507" y="309.381"/>
      <point x="98.517" y="279.517" type="curve"/>
      <point x="98.517" y="358.273" type="line"/>
      <point x="162.764" y="388.137"/>
      <point x="224.006" y="397.817"/>
      <point x="277.19" y="397.817" type="curve" smooth="yes"/>
      <point x="383.224" y="397.817"/>
      <point x="461.244" y="317.418"/>
    </contour>
    <contour>
      <point x="69.667" y="523.333" type="line"/>
      <point x="158.333" y="523.333" type="line"/>
      <point x="158.333" y="175.297" type="line"/>
      <point x="69.667" y="175.297" type="line"/>
    </contour>
  </outline>
</glyph>
<glyph name="three.dnom" format="2">
  <advance width="334"/>
  <outline>
    <contour>
      <point x="39.333" y="118" type="curve"/>
      <point x="111.667" y="118" type="line"/>
      <point x="111.667" y="82.39"/>
      <point x="123.831" y="60"/>
      <point x="163" y="60" type="curve" smooth="yes"/>
      <point x="206.148" y="60"/>
      <point x="213.667" y="92.347"/>
      <point x="213.667" y="128" type="curve" smooth="yes"/>
      <point x="213.667" y="181.435"/>
      <point x="179.863" y="187.333"/>
      <point x="135.667" y="187.333" type="curve"/>
      <point x="135.667" y="254.333" type="line"/>
      <point x="184.722" y="254.333"/>
      <point x="206.667" y="260.609"/>
      <point x="206.667" y="315.333" type="curve" smooth="yes"/>
      <point x="206.667" y="343.991"/>
      <point x="192.388" y="367.333"/>
      <point x="161.333" y="367.333" type="curve" smooth="yes"/>
      <point x="122.947" y="367.333"/>
      <point x="114" y="343.891"/>
      <point x="114" y="310.333" type="curve"/>
      <point x="41.333" y="310.333" type="line"/>
      <point x="41.333" y="321.667" type="line" smooth="yes"/>
      <point x="41.333" y="395.515"/>
      <point x="93.627" y="434.667"/>
      <point x="164" y="434.667" type="curve" smooth="yes"/>
      <point x="243.034" y="434.667"/>
      <point x="285.667" y="390.733"/>
      <point x="285.667" y="312.667" type="curve" smooth="yes"/>
      <point x="285.667" y="276.209"/>
      <point x="267.199" y="243.768"/>
      <point x="234.667" y="226.667" type="curve"/>
      <point x="281.679" y="206.665"/>
      <point x="292" y="162.851"/>
      <point x="292" y="116.333" type="curve" smooth="yes"/>
      <point x="292" y="41.505"/>
      <point x="237.89" y="-6.333"/>
      <point x="164.667" y="-6.333" type="curve" smooth="yes"/>
      <point x="80.203" y="-6.333"/>
      <point x="39.333" y="34.394"/>
    </contour>
  </outline>
</glyph>
<glyph name="two.dnom" format="2">
  <advance width="337"/>
  <outline>
    <contour>
      <point x="45.667" y="62.667" type="line"/>
      <point x="187" y="249.667" type="line" smooth="yes"/>
      <point x="204.949" y="273.521"/>
      <point x="211.333" y="287.995"/>
      <point x="211.333" y="318" type="curve" smooth="yes"/>
      <point x="211.333" y="345.812"/>
      <point x="196.216" y="367.333"/>
      <point x="166.667" y="367.333" type="curve" smooth="yes"/>
      <point x="126.743" y="367.333"/>
      <point x="121.667" y="334.931"/>
      <point x="121.667" y="303" type="curve"/>
      <point x="42.667" y="303" type="line"/>
      <point x="42.667" y="318" type="line" smooth="yes"/>
      <point x="42.667" y="394.157"/>
      <point x="97.214" y="434.667"/>
      <point x="169.667" y="434.667" type="curve" smooth="yes"/>
      <point x="248.381" y="434.667"/>
      <point x="294.333" y="387.565"/>
      <point x="294.333" y="310" type="curve" smooth="yes"/>
      <point x="294.333" y="268.42"/>
      <point x="278.153" y="241.62"/>
      <point x="254" y="209.667" type="curve" smooth="yes"/>
      <point x="149.333" y="70.333" type="line"/>
      <point x="295" y="70.333" type="line"/>
      <point x="295" y="0" type="line"/>
      <point x="45.667" y="0" type="line"/>
    </contour>
  </outline>
</glyph>
<glyph name="vecyr.loclBGR" format="2">
  <advance width="539"/>
  <outline>
    <contour>
      <point x="483.588" y="214.179" type="curve" smooth="yes"/>
      <point x="483.588" y="87.205"/>
      <point x="397.567" y="-6"/>
      <point x="272.235" y="-6" type="curve" smooth="yes"/>
      <point x="144.91" y="-6"/>
      <point x="69.667" y="73.333"/>
      <point x="69.667" y="196.796" type="curve" smooth="yes"/>
      <point x="69.667" y="505.119" type="line" smooth="yes"/>
      <point x="69.667" y="631.081"/>
      <point x="148.162" y="710.333"/>
      <point x="272.949" y="710.333" type="curve" smooth="yes"/>
      <point x="392.583" y="710.333"/>
      <point x="467.857" y="642.991"/>
      <point x="467.857" y="535.99" type="curve" smooth="yes"/>
      <point x="467.857" y="450.119"/>
      <point x="427.104" y="391.025"/>
      <point x="360.124" y="367.597" type="curve"/>
      <point x="366.558" y="388.115" type="line"/>
      <point x="433.054" y="377.902"/>
      <point x="483.588" y="305.468"/>
    </contour>
    <contour>
      <point x="158.333" y="195.028" type="line" smooth="yes"/>
      <point x="158.333" y="125.206"/>
      <point x="195.443" y="72.59"/>
      <point x="271.129" y="72.577" type="curve" smooth="yes"/>
      <point x="339.965" y="72.569"/>
      <point x="394.441" y="124.424"/>
      <point x="394.441" y="220.205" type="curve" smooth="yes"/>
      <point x="394.441" y="288.009"/>
      <point x="352.763" y="341.847"/>
      <point x="286.33" y="341.847" type="curve" smooth="yes"/>
      <point x="142.973" y="341.847" type="line"/>
      <point x="142.973" y="405.26" type="line"/>
      <point x="271.46" y="405.26" type="line" smooth="yes"/>
      <point x="334.33" y="405.26"/>
      <point x="378.797" y="451.245"/>
      <point x="378.797" y="525.853" type="curve" smooth="yes"/>
      <point x="378.797" y="590.548"/>
      <point x="336.967" y="631.753"/>
      <point x="271.423" y="631.753" type="curve" smooth="yes"/>
      <point x="202.411" y="631.753"/>
      <point x="158.333" y="579.377"/>
      <point x="158.333" y="497.058" type="curve" smooth="yes"/>
    </contour>
  </outline>
</glyph>
<glyph name="zero.dnom" format="2">
  <advance width="342"/>
  <outline>
    <contour>
      <point x="42.333" y="145" type="curve" smooth="yes"/>
      <point x="42.333" y="289" type="line" smooth="yes"/>
      <point x="42.333" y="375.36"/>
      <point x="77.891" y="434.333"/>
      <point x="171" y="434.333" type="curve" smooth="yes"/>
      <point x="266.686" y="434.333"/>
      <point x="300" y="378.393"/>
      <point x="300" y="289" type="curve" smooth="yes"/>
      <point x="300" y="145" type="line" smooth="yes"/>
      <point x="300" y="55.923"/>
      <point x="268.979" y="-6.333"/>
      <point x="171" y="-6.333" type="curve" smooth="yes"/>
      <point x="73.36" y="-6.333"/>
      <point x="42.333" y="56.251"/>
    </contour>
    <contour>
      <point x="217.667" y="149" type="curve" smooth="yes"/>
      <point x="217.667" y="280.667" type="line" smooth="yes"/>
      <point x="217.667" y="315.268"/>
      <point x="217.239" y="364.333"/>
      <point x="171" y="364.333" type="curve" smooth="yes"/>
      <point x="123.804" y="364.333"/>
      <point x="124" y="315.923"/>
      <point x="124" y="280.667" type="curve" smooth="yes"/>
      <point x="124" y="149" type="line" smooth="yes"/>
      <point x="124" y="112.872"/>
      <point x="122.491" y="63.333"/>
      <point x="171" y="63.333" type="curve" smooth="yes"/>
      <point x="219.87" y="63.333"/>
      <point x="217.667" y="112.466"/>
    </contour>
  </outline>
</glyph>
<glyph name="zero.sups" format="2">
  <advance width="342"/>
  <outline>
    <contour>
      <point x="42.333" y="586" type="curve" smooth="yes"/>
      <point x="42.333" y="729" type="line" smooth="yes"/>
      <point x="42.333" y="816.053"/>
      <point x="77.248" y="874.667"/>
      <point x="171" y="874.667" type="curve" smooth="yes"/>
      <point x="266.922" y="874.667"/>
      <point x="300" y="818.527"/>
      <point x="300" y="729" type="curve" smooth="yes"/>
      <point x="300" y="586" type="line" smooth="yes"/>
      <point x="300" y="497.049"/>
      <point x="269.241" y="433.667"/>
      <point x="171" y="433.667" type="curve" smooth="yes"/>
      <point x="72.981" y="433.667"/>
      <point x="42.333" y="497.296"/>
    </contour>
    <contour>
      <point x="217.667" y="589.667" type="curve" smooth="yes"/>
      <point x="217.667" y="720.667" type="line" smooth="yes"/>
      <point x="217.667" y="755.897"/>
      <point x="217.803" y="804.333"/>
      <point x="171" y="804.333" type="curve" smooth="yes"/>
      <point x="123.245" y="804.333"/>
      <point x="124" y="756.566"/>
      <point x="124" y="720.667" type="curve" smooth="yes"/>
      <point x="124" y="589.667" type="line" smooth="yes"/>
      <point x="124" y="553.831"/>
      <point x="122.723" y="504"/>
      <point x="171" y="504" type="curve" smooth="yes"/>
      <point x="219.652" y="504"/>
      <point x="217.667" y="553.448"/>
    </contour>
  </outline>
</glyph>
